<svg width="983px" height="948px" viewBox="0 0 983 948" version="1.1" xmlns="http://www.w3.org/2000/svg" xmlns:xlink="http://www.w3.org/1999/xlink"><title>Group 6</title> <g id="Desktop" stroke="none" stroke-width="1" fill="none" fill-rule="evenodd" opacity="0.3"><g id="FINANSALLAR" transform="translate(-458.000000, -3.000000)" fill="#F9C784"><g id="Group-6" transform="translate(458.000000, 3.000000)"><path d="M130.972383,191.620756 C132.904083,199.939529 134.95262,208.515342 137.047891,217.278095 C147.524248,261.169748 159.130027,309.789394 163.421829,355.32455 C171.156418,356.812271 178.182198,358.75176 184.639373,360.543256 C198.683145,364.422235 208.832359,367.226315 215.546575,362.404854 C221.847968,357.879379 225.314123,346.055505 226.459123,325.211838 C227.666435,303.192015 231.000176,285.463993 234.224869,268.320154 C240.463949,235.115164 245.846226,206.443438 231.57657,160.775867 C222.35426,131.278495 207.874298,105.745781 195.100153,83.2274547 C179.669919,56.0122928 167.106079,33.8678436 168.905364,14.3872712 C154.736967,34.8336937 111.211402,106.587006 130.972383,191.620756 M421.623146,289.257291 C385.762068,300.387934 345.118475,313.006298 292.89247,336.163331 C233.259019,362.599582 208.840148,378.053183 205.802394,391.263519 C203.785014,400.026272 210.943209,408.516405 220.850961,420.254599 C223.600518,423.526026 226.529225,426.984393 229.489088,430.730956 C247.513096,428.121603 268.271083,422.949632 291.630634,413.844159 C342.220925,394.129913 364.957347,371.736212 386.938224,350.082477 C407.322334,330.009932 426.577022,311.043441 466.03667,296.38433 C523.917571,274.870799 565.30113,225.596868 583.901533,199.75259 C529.105121,255.896519 485.369249,269.472943 421.623146,289.257291 M141.518842,424.709972 L143.170134,421.882524 C143.333705,421.975993 148.645881,424.967012 158.888565,427.817828 C162.526081,406.436712 162.572815,382.765596 160.384074,358.097475 C157.167171,357.536658 153.817852,357.053733 150.351697,356.711012 C103.842901,352.138803 93.9039923,393.093961 93.5067476,394.838722 L93.3899109,395.321647 L93.0316116,395.664368 C87.9764771,400.423516 85.6241649,409.34984 84.6193693,414.848954 C93.2730742,406.732698 100.446848,403.601475 107.534941,404.730896 C120.122148,406.756065 132.678198,422.44334 150.343907,458.499145 C153.856798,449.915542 156.47394,440.7166 158.31217,431.011364 C147.384044,428.012556 141.690203,424.81123 141.518842,424.709972 M161.482339,431.83701 C159.418224,442.679456 156.396048,452.929929 152.244451,462.417069 C152.478124,462.907783 152.719587,463.406287 152.95326,463.90479 C182.964714,526.731778 267.733634,540.76776 268.590437,540.900175 L268.076355,544.132657 C267.211764,544.000242 181.624987,529.863001 150.468533,466.280469 C144.852583,477.925194 137.421768,488.331449 127.802213,497.164304 C133.464899,507.858756 182.240326,593.352064 281.769616,570.140506 C304.84097,564.758229 326.299977,559.1267 327.047732,554.437654 C327.468344,551.797145 320.48151,547.559867 312.39641,542.644936 C294.193252,531.599974 263.737819,513.108619 251.041564,475.705297 C245.114049,458.226526 236.475922,445.031768 228.055891,434.21269 C198.402737,438.231872 176.040192,435.420002 161.482339,431.83701 M124.297112,497.507025 L123.759664,496.393182 L124.678779,495.575325 C135.069456,486.275123 142.897515,475.105535 148.630302,462.471593 C131.065852,426.166536 118.556536,409.824976 107.01307,407.963378 C100.182018,406.857324 92.9225641,410.751881 83.4821587,420.589531 L80.2808331,423.923271 L80.6702888,419.312116 C80.7248126,418.595518 82.2203224,401.771033 90.4378369,393.615831 C91.7775644,388.685323 104.092153,348.836219 150.678839,353.455163 C153.91911,353.774517 157.050334,354.210707 160.07251,354.716999 C155.733974,309.680346 144.237243,261.520259 133.862144,218.041428 C131.766872,209.270886 129.718335,200.687284 127.778846,192.360721 C104.099942,90.4401736 169.949106,7.32254543 170.618969,6.49689942 L175.861043,0.000778911332 L173.461996,8.00019829 C167.487746,27.9013828 180.931755,51.6036546 197.950968,81.6073191 C210.810794,104.273639 225.376436,129.962135 234.700005,159.802228 C249.218912,206.24871 243.758743,235.294314 237.441773,268.919916 C234.240447,285.962496 230.930074,303.58147 229.73055,325.390988 C228.50766,347.605539 224.72215,359.842236 217.454908,365.068731 C209.471067,370.809307 198.130118,367.670295 183.766993,363.697847 C177.63696,361.99982 170.992847,360.16159 163.725604,358.720604 C165.859821,383.419882 165.758563,407.15331 162.066523,428.651263 C175.923356,432.10184 197.273315,434.866975 225.711368,431.245038 C223.179906,428.106025 220.702968,425.16174 218.342867,422.373238 C207.827564,409.895078 200.225389,400.890863 202.608858,390.523553 C205.958177,375.981279 230.065482,360.434209 291.560532,333.164523 C343.957897,309.929598 384.702749,297.287867 420.649507,286.133857 C489.069078,264.892945 534.269303,250.864752 595.0867,182.97484 L605.62537,171.213279 L597.727209,184.883173 C597.236495,185.724397 548.211816,269.332739 467.173881,299.45324 C428.376307,313.870889 409.363082,332.595918 389.236013,352.419211 C367.013673,374.306619 344.035788,396.933994 292.822368,416.897491 C270.008055,425.784869 249.631735,430.96463 231.786876,433.675241 C240.01218,444.424217 248.323164,457.49435 254.149421,474.653766 C266.45622,510.927667 296.280735,529.029566 314.094437,539.848645 C324.664263,546.266874 331.051336,550.138063 330.280214,554.951735 C329.361099,560.70789 318.207089,564.999692 282.509582,573.334043 C270.413089,576.153702 259.048773,577.407749 248.401055,577.407749 C163.912543,577.39996 124.733303,498.402773 124.297112,497.507025" id="Fill-1" stroke="#fff" stroke-width="2" stroke-linecap="round" stroke-linejoin="round"></path> <path d="M380.044859,670.550745 C385.39598,673.089996 395.085637,679.329076 396.106011,691.620297 C396.254004,693.388425 396.324106,695.795261 396.417575,698.778492 C396.557779,703.420803 396.752507,709.68325 397.406793,717.23869 C428.96828,715.049949 451.657967,708.46036 462.336841,697.547812 C456.058816,690.171522 423.640526,654.08456 401.776485,669.359011 L401.161145,669.787412 L400.405601,669.693943 C394.439141,668.93061 384.913055,668.673569 380.044859,670.550745 M221.816811,705.858796 C119.428917,705.858796 27.4706448,892.540475 9.61020801,931.034273 C131.135954,840.735082 236.76412,797.466557 341.551061,794.98183 C363.594252,794.467749 385.653021,789.303567 407.501484,779.582753 C399.019139,757.165685 395.467304,737.00746 393.878324,721.475968 C353.429459,723.836069 299.536584,719.17039 237.371671,707.323149 C232.168543,706.326143 226.973204,705.858796 221.816811,705.858796 M412.470938,781.600134 C419.792704,800.029176 430.518313,819.875836 446.322424,839.862701 C478.888707,881.051532 483.094828,903.671118 485.62629,917.185229 C487.339895,926.353016 488.196698,930.964171 495.775505,935.458489 C511.423833,944.750901 545.322055,946.160731 560.526404,938.130155 C565.324498,935.606482 567.879327,932.389578 568.136368,928.572913 C568.588136,921.469241 560.845757,907.768191 552.65161,893.257073 C538.553315,868.285176 521.004443,837.214403 530.647365,816.24611 C533.716276,809.594207 538.748043,803.923732 543.180048,798.915333 C566.196878,773.008742 594.767346,751.004497 619.692509,732.87923 L626.874071,727.629367 C644.524202,714.660494 662.781883,701.247641 683.905959,693.598731 L685.705244,692.960024 C704.562687,686.448325 726.520198,683.644245 754.724577,684.189483 C766.743179,684.407578 778.917563,684.859346 790.702491,685.303326 C806.156092,685.87972 822.139353,686.471693 837.881151,686.557373 C859.176587,686.666421 880.744641,685.996557 901.689567,685.35006 L917.813032,684.859346 C930.532654,684.501047 944.085711,684.064857 957.685503,683.16132 C959.134278,683.060061 960.645366,683.005537 962.203188,682.943224 C965.459038,682.826388 968.784989,682.701762 971.877267,682.203259 L970.833526,681.743701 C920.297759,659.170851 873.563079,639.986264 827.96561,623.099467 C800.329836,612.864572 770.489742,602.310323 739.496861,594.427741 C726.099586,591.023898 714.81316,588.531382 703.269694,587.472062 C683.041367,585.579308 660.951442,591.397776 635.84713,605.246819 C589.572007,630.763954 550.120148,668.790405 511.969071,705.578388 L504.374686,712.892365 C490.883942,725.869028 474.705953,740.948751 457.07919,754.330448 C442.357766,765.507826 427.47277,774.60551 412.470938,781.600134 M532.555698,947.290152 C518.208151,947.290152 503.159584,944.377024 493.781492,938.807808 C484.691597,933.417741 483.538808,927.240974 481.801836,917.894038 C479.340476,904.738226 475.227824,882.718403 443.261303,842.277326 C427.254675,822.025632 416.357705,801.890774 408.919102,783.21248 C386.650027,793.096865 364.155068,798.346727 341.636741,798.876387 C235.977419,801.376692 129.289934,845.813584 5.87922273,938.690971 L-0.00155782266,943.115187 L2.91935967,936.362026 C7.45262362,925.885669 115.347421,680.146933 238.096058,703.498694 C299.357434,715.166786 353.180207,719.746785 393.512236,717.480153 C392.86574,709.885767 392.663223,703.584375 392.530808,698.895328 C392.437338,695.997778 392.367236,693.661044 392.227032,691.93965 C391.050876,677.833566 375.573908,672.918636 375.418126,672.864112 L372.723093,672.038466 L374.452276,669.810779 C379.1569,663.766427 395.989174,665.261937 400.171928,665.744862 C427.262464,647.900004 464.844936,694.40101 466.441704,696.402812 L467.454289,697.672438 L466.38718,698.903118 C455.521367,711.35791 431.585422,718.843248 397.772881,721.226716 C399.338493,736.431066 402.820226,756.098577 411.068898,777.962618 C425.728009,771.100409 440.30144,762.174085 454.719089,751.230381 C472.197859,737.965521 488.2668,722.979267 501.679653,710.080495 L509.266249,702.774307 C547.604265,665.814964 587.250852,627.601574 633.962164,601.835187 C659.759707,587.604477 682.519497,581.622438 703.635783,583.585295 C716.121731,584.738084 728.708939,587.66679 740.454921,590.650021 C771.626953,598.579338 801.583883,609.180321 829.320915,619.446373 C875.004065,636.364327 921.816636,655.580069 972.422505,678.184076 L974.034852,678.900675 C975.530361,679.570538 977.025871,680.240402 978.513592,680.925844 L982.665189,682.834177 L978.404544,684.508836 C973.52077,686.417169 967.593255,686.643053 962.351182,686.837781 C960.840094,686.900094 959.352373,686.946829 957.942544,687.048087 C944.288228,687.959413 930.680647,688.395604 917.922079,688.753903 L901.806404,689.244617 C880.838111,689.891113 859.075328,690.545399 837.865573,690.45193 C822.053673,690.366249 806.047045,689.766488 790.554498,689.197882 C778.792937,688.753903 766.634131,688.302134 754.646686,688.084039 C726.925232,687.562169 705.388333,690.280569 686.982659,696.636486 L685.237897,697.259615 C664.635692,704.713796 646.611684,717.963078 629.17186,730.76838 L621.982508,736.033821 C597.236495,754.026673 568.860755,775.875135 546.093177,801.501318 C541.840321,806.299412 537.003282,811.744002 534.191412,817.874034 C525.374135,837.035253 542.37777,867.147965 556.039875,891.340951 C564.903886,907.028225 572.545006,920.565704 572.015346,928.822164 C571.680414,934.009714 568.338884,938.418352 562.341267,941.572943 C555.035079,945.436343 544.021273,947.290152 532.555698,947.290152" id="Fill-3" stroke="#fff" stroke-width="1" stroke-linecap="round" stroke-linejoin="round"></path></g></g></g></svg>