<svg xmlns="http://www.w3.org/2000/svg" viewBox="0 0 55.79 76.56"><defs><style>.cls-1{fill:#fd8204;}</style></defs><g id="Layer_2" data-name="Layer 2"><g id="Layer_1-2" data-name="Layer 1"><path class="cls-1" d="M53.85,16.93a3.84,3.84,0,0,0-5.66-.53,5.37,5.37,0,0,0-.56.51l-.08.07v-.05l0-.49a11.63,11.63,0,0,0-.08-2.35,8.72,8.72,0,0,0-3.58-5.5c-1.81-1.38-4-1-5.71.93a6.89,6.89,0,0,0-.89,1.38l-.07.13v-.11c0-.37,0-.74.09-1.2a6.94,6.94,0,0,0-4.28-7.09,4.13,4.13,0,0,0-4.5.77A17.74,17.74,0,0,0,26.9,4.9a6.63,6.63,0,0,0-1.6-2.85,7.25,7.25,0,0,0-9.92-.18c-2.3,2-3.18,5.07-3.82,7.81a31.48,31.48,0,0,0-.66,3.61,5.87,5.87,0,0,0-3.62,2.14,9.82,9.82,0,0,0-1.16,2.13l-.2.42c-.63,1.38-1.25,2.76-1.87,4.13-.26.6-.54,1.19-.81,1.78-.75,1.63-1.53,3.32-2.17,5A15.5,15.5,0,0,0,3.15,44,35.47,35.47,0,0,0,7.4,48.45L8,49a55.39,55.39,0,0,1,4.92,5.4c1.39,1.71,2.77,3.56,3,5.79a20.81,20.81,0,0,1-.44,5.36c-.09.55-.18,1.09-.25,1.62-.44,3.07-.77,6.09-1,9a.37.37,0,0,0,.1.28.4.4,0,0,0,.27.12H15a.39.39,0,0,0,.37-.35c.28-3.82.8-7.7,1.3-11.44l.05-.39c.35-2.56.54-4.87-.59-7.21a24.22,24.22,0,0,0-3.64-5.06l-.59-.69A49.27,49.27,0,0,0,8.27,47.7c-2.39-2.29-4.65-4.46-6-7.45-1.73-3.7-1.49-7.94.74-13q1.8-4,3.64-8.09l.27-.6c.28-.64.57-1.27.89-1.89a4.66,4.66,0,0,1,3-2.22,2.78,2.78,0,0,0,.63,2,21.28,21.28,0,0,1,2.14,3c1.86,3,3.74,6.61,3.58,10a3.65,3.65,0,0,1-.15.73,2.77,2.77,0,0,0-.17,1.24c.11.66,1,.8,1.65.89l.2,0a20.77,20.77,0,0,1,6.2,2.37,23.72,23.72,0,0,1,7.64,6.71,36.34,36.34,0,0,1,3.43,6.12c.3.67.56,1.35.82,2a17.42,17.42,0,0,0,2.38,4.66,6.8,6.8,0,0,0,2.1,1.91,1.5,1.5,0,0,0,1.5.2,9.33,9.33,0,0,0,2-1.87l.22-.25a30.69,30.69,0,0,0,3.35-4.55c-.5,1-1.05,2-1.63,3s-1.2,2-1.94,3.08a4.44,4.44,0,0,1-.27.38,4.75,4.75,0,0,0-.64,1.06c-.18.48.33,1,.78,1.41l.23.23a6.66,6.66,0,0,1,.95,2.65c.46,2.23.72,4.54.93,6.53.33,3.09.49,5.67.53,8.12a.38.38,0,0,0,.37.37H48a.36.36,0,0,0,.27-.12.36.36,0,0,0,.1-.27c0-2.35-.19-4.85-.49-7.87-.25-2.47-.52-4.51-.87-6.42a16.75,16.75,0,0,0-.58-2.38,5.78,5.78,0,0,0-.64-1.22,6.53,6.53,0,0,0-.77-.89c.14-.23.31-.46.47-.69s.23-.32.33-.47c.71-1.07,1.39-2.16,2-3.26a53,53,0,0,0,4.68-10.43,40.69,40.69,0,0,0,1.6-7.13,32,32,0,0,0,.27-3.8l0-.5a12.91,12.91,0,0,0-.19-3.23.52.52,0,0,0-.19-.3,8.18,8.18,0,0,0,1.61-3.69C56.06,20.94,55.48,18.72,53.85,16.93ZM53,29.38c0,.22,0,.42,0,.58-.21,1.86-.48,3.74-.81,5.59A39,39,0,0,1,47.46,49a29.31,29.31,0,0,1-3.52,4.76l-.26.3c-.29.34-1.16,1.39-1.53,1.28a5.32,5.32,0,0,1-2.46-2.2A14.26,14.26,0,0,1,38,49.67a40.18,40.18,0,0,0-3.57-7.36,23.47,23.47,0,0,0-6.11-6.6,27.29,27.29,0,0,0-5.8-3.35,15.45,15.45,0,0,0-3-.93l-1.21-.25a.61.61,0,0,1-.26-.1h0s0-.11.07-.39a7,7,0,0,0,0-3.18l.58,0c.43,0,.85.06,1.28.07a4.9,4.9,0,0,0,1,2.43,4.79,4.79,0,0,0,5.47,1.57,9.76,9.76,0,0,0,3.2-2.31A5.83,5.83,0,0,0,32,33.63c1.45,1,3.52.59,6.16-1.37a18.49,18.49,0,0,0,1.72-1.44c0,.1,0,.2,0,.3a5.13,5.13,0,0,0,2.92,4.7c1.9.67,3.72-.6,4.92-1.61s2.11-2,3.09-3c.46-.47.91-.94,1.38-1.4.27-.27.56-.57.85-.9C53,29.06,53,29.23,53,29.38ZM37.41,12.8l-.06-.06a3.23,3.23,0,0,0,1-1.34,3.55,3.55,0,0,1,.28-.55c.63-1,1.87-2.19,3.28-2s2.57,1.67,3.29,2.56a6.49,6.49,0,0,1,1.26,3.14,7.49,7.49,0,0,1,0,1.71c0,.38,0,.76,0,1.15a3.44,3.44,0,0,0,.05.45,1,1,0,0,0-.57.66,23.56,23.56,0,0,1-3.19,6.38c-.21.28-.43.55-.65.83a11.81,11.81,0,0,0-1.52,2.2,6.42,6.42,0,0,0-.34.86,13.79,13.79,0,0,1-1.48,1.5c-2.47,2.11-5,3.78-6.79,1.82a5,5,0,0,1-1.14-4.21,18.56,18.56,0,0,0,1.42-2.22l.7-1.26a58.32,58.32,0,0,0,3.51-7l.08-.17C37.58,14.67,37.85,13.35,37.41,12.8Zm-6.22,4.54a4.53,4.53,0,0,1-1.6,1.49,4.47,4.47,0,0,1-2.93.36,2.9,2.9,0,0,1-2.2-2.81l3.38,0a4.9,4.9,0,0,1,3.21.81Zm4.95-7.51a9.88,9.88,0,0,0,0,2.3,1,1,0,0,0,.25.49c-.49.24-.75.94-.93,1.41l-.08.2c-.23.56-.47,1.12-.71,1.67-.85,2-1.72,3.92-2.58,5.88-.49,1.09-1,2.18-1.45,3.27l-.17.39a10.34,10.34,0,0,0-.77,2.08,11.89,11.89,0,0,1-1.63,1.62,14.3,14.3,0,0,1-1.89,1.34,3.7,3.7,0,0,1-3.12-.05,4,4,0,0,1-2-2.66.71.71,0,0,1,0-.16c.22,0,.45,0,.67-.06a13.19,13.19,0,0,0,4-1.37,15.68,15.68,0,0,0,4.63-3.7c1.12-1.26,3.2-3.59,1.91-5.54-.08-.77-.71-1.4-1.8-1.77a7.68,7.68,0,0,0-2.55-.3H27.6c-.94,0-1.86,0-2.78-.07a9.42,9.42,0,0,0,1.12-3c.06-.23.11-.45.17-.66A35.14,35.14,0,0,0,27,7a3.17,3.17,0,0,0,0-.53,12.61,12.61,0,0,1,1.66-1.78,4.34,4.34,0,0,1,2.85-1.37,3.75,3.75,0,0,1,1.49.53A5.89,5.89,0,0,1,35.91,7,6.63,6.63,0,0,1,36.14,9.83ZM25.6,6.76a23.91,23.91,0,0,0-1.08,3l-.21.67a19.16,19.16,0,0,0-.88,3.68,1.43,1.43,0,0,0,.06.57L23,14.62c-1.33-.18-2.69-.43-4-.68s-2.77-.51-4.17-.7a14.64,14.64,0,0,0-1.94-.14c-.32,0-.63,0-.93,0,.06-.33.13-.66.19-1s.09-.4.12-.58c.61-3.21,1.4-6.53,3.7-8.77a6,6,0,0,1,5.45-1.59,5.74,5.74,0,0,1,4.21,3.5,4,4,0,0,1,.28,1.38A5.62,5.62,0,0,0,25.6,6.76ZM12.17,14.23a13.07,13.07,0,0,1,3.28.22l.1,0c1.6.24,3.19.52,5,.84l.51.09c.76.14,1.53.28,2.31.38v0A4.17,4.17,0,0,0,25.66,20a5.35,5.35,0,0,0,5.86-1.32A9,9,0,0,1,29.34,22l-.13.15A14.65,14.65,0,0,1,25,25.32a10.91,10.91,0,0,1-3.57,1.14l-.2,0a1,1,0,0,0-.26-.6,1.24,1.24,0,0,0-.88-.28,3.45,3.45,0,0,0-.57,0,4.26,4.26,0,0,0-1.64.65l-.06-.21A25.5,25.5,0,0,0,15.68,21a32.28,32.28,0,0,0-2.53-4.12,9.08,9.08,0,0,0-.85-1.06,2,2,0,0,1-.43-1.53ZM51.33,29c-.55.53-1.09,1.09-1.62,1.64-.9.92-1.82,1.88-2.81,2.73a5.84,5.84,0,0,1-2.37,1.39c-1.25.31-2.21-.2-3-1.64a4.26,4.26,0,0,1-.3-3.49l.09-.32c.59-.66,1.21-1.41,1.87-2.28a28.41,28.41,0,0,0,4.1-6.59,3.13,3.13,0,0,0,.18-2,4.4,4.4,0,0,0,1.32-.95,5.33,5.33,0,0,1,.77-.63c1.11-.7,2.26-.42,3.51.86a5.87,5.87,0,0,1,1.64,4.05C54.78,24.33,53.69,26.7,51.33,29Z"/></g></g></svg>