<svg xmlns="http://www.w3.org/2000/svg" viewBox="0 0 80.62 51.64"><defs><style>.cls-1{fill:#fd8204;}</style></defs><g id="Layer_2" data-name="Layer 2"><g id="Layer_1-2" data-name="Layer 1"><path class="cls-1" d="M80.36,12.14a.49.49,0,0,0-.52,0,6.59,6.59,0,0,0-.91.79A12.11,12.11,0,0,1,77,14.52a13.49,13.49,0,0,1-2.15,1c.1-.28.24-.6.34-.83a8.74,8.74,0,0,0,.54-1.49c.28-1.25-.48-1.56-.82-1.63s-1.11,0-3.25,1.08a46.16,46.16,0,0,0-5,3,11.09,11.09,0,0,0-2.18,2.81c-.19.31-.36.58-.49.77a.71.71,0,0,0-.11.25l-.23,0a.78.78,0,0,0-.37,0l-8.86,3.12a37.4,37.4,0,0,0-1.74-6.93A28.66,28.66,0,0,0,47.92,7a21.79,21.79,0,0,0-4.2-3.86A17.14,17.14,0,0,0,33.33,0,17,17,0,0,0,23,4.11a22.2,22.2,0,0,0-4,4.46,27.49,27.49,0,0,0-4.62,13.07A43.76,43.76,0,0,0,15.91,37L5.11,40.92l0-1A2.57,2.57,0,0,0,5.07,39a1,1,0,0,0-.34-.5.87.87,0,0,0-.85-.06,1.31,1.31,0,0,0-.45.37l-3.27,4a.71.71,0,0,0-.16.52.66.66,0,0,0,.26.47.69.69,0,0,0,.69.13l.59-.22a.7.7,0,0,0,.63.41l3.83.1a2,2,0,0,0,.69-.12.45.45,0,0,0,.3.12H7a.5.5,0,0,0,.49-.5.51.51,0,0,0-.19-.39,1,1,0,0,0-.16-.57,2.17,2.17,0,0,0-.74-.62L6.21,42,17,38.16a.73.73,0,0,0,.45-.87,42.56,42.56,0,0,1-1.67-15.51,26.1,26.1,0,0,1,4.38-12.4A20.84,20.84,0,0,1,23.93,5.2a15.49,15.49,0,0,1,9.45-3.77,15.73,15.73,0,0,1,9.53,2.9,20.1,20.1,0,0,1,3.92,3.6,27.32,27.32,0,0,1,4.56,8.26,37.35,37.35,0,0,1,1.71,6.93l-1.57.56c-.07-.6-.16-1.19-.26-1.78a27.85,27.85,0,0,0-1.76-6.06,20.72,20.72,0,0,0-7.2-9.23A13.24,13.24,0,0,0,37.2,4.39a10.25,10.25,0,0,0-5.67.52,16.14,16.14,0,0,0-7.18,6.2C21.37,15.41,19.8,21.56,20,28s2.28,12.51,5.57,16.47a22.09,22.09,0,0,0,6.83,5.72,13.12,13.12,0,0,0,6,1.48,13.9,13.9,0,0,0,1.44-.08,13.87,13.87,0,0,0,7.68-3.71,22,22,0,0,0,5.5-8.2,28.87,28.87,0,0,0,1.59-6.23,35.82,35.82,0,0,0,.27-6.91c0-.8-.12-1.61-.21-2.43l9-3.16c.88.14,3.91.6,4.73.6.34,0,1.43-.1,2.59-.25,1-.12,2.84-.37,4.39-.72,2-.44,2.84-.94,2.84-1.67,0,0,0-.09,0-.11C78,17.84,77,17.34,76,16.86l-.28-.13a12.06,12.06,0,0,0,2.13-1,12,12,0,0,0,2-1.67c.21-.2.39-.38.58-.54a.47.47,0,0,0,.19-.37l0-.51A.49.49,0,0,0,80.36,12.14Zm-6,.89a11.65,11.65,0,0,1-.44,1.13,6.2,6.2,0,0,0-.61,2c-2.09.74-4.54,1.5-6.36,2.06l-.65.2a6.72,6.72,0,0,1,1.29-1.56,43.52,43.52,0,0,1,4.76-2.9A11.6,11.6,0,0,1,74.35,13ZM74,17.39a9.29,9.29,0,0,0,1.38.76c.34.16.91.42,1.2.6a13.74,13.74,0,0,1-1.55.42c-1.47.33-3.3.58-4.26.7-1.32.16-2.2.23-2.41.23a20.3,20.3,0,0,1-2.07-.22l1.08-.33C69.25,19,71.81,18.17,74,17.39ZM35.25,5.62a9.76,9.76,0,0,1,1.69.16,11.87,11.87,0,0,1,4.56,2,19.14,19.14,0,0,1,6.7,8.6,26.3,26.3,0,0,1,1.67,5.77c.12.66.21,1.33.28,2l-2.06.73a20.31,20.31,0,0,0-1.43-5.64,17.31,17.31,0,0,0-1.22-2.39,14.82,14.82,0,0,0-1.54-2,9.62,9.62,0,0,0-3.64-2.61A6.76,6.76,0,0,0,36.07,12a8.71,8.71,0,0,0-3.64,2,13.14,13.14,0,0,0-3.38,5.08,22.33,22.33,0,0,0-1.2,4.65,19.84,19.84,0,0,0-.19,4.63c.05.66.15,1.34.27,2A21,21,0,0,0,32.32,40c2.53,2.95,5.63,4.37,9,4.08a10.75,10.75,0,0,0,3-.73c3.08-1.32,5.34-4.31,6.54-8.66a28.64,28.64,0,0,0,.82-9.58l1.62-.57c.07.68.13,1.36.16,2a33.74,33.74,0,0,1-.26,6.63,26.61,26.61,0,0,1-1.51,5.92,20.49,20.49,0,0,1-5.12,7.66,12.5,12.5,0,0,1-6.9,3.35,11.43,11.43,0,0,1-6.58-1.26,20.52,20.52,0,0,1-6.38-5.35c-3.1-3.73-5-9.42-5.24-15.62s1.25-11.94,4.05-16A14.8,14.8,0,0,1,32,6.23,8.92,8.92,0,0,1,35.25,5.62ZM42.59,30a3,3,0,0,1-1,1.44,1,1,0,0,1-.71.18,1.66,1.66,0,0,1-.8-.39,4,4,0,0,1-1.13-2,3.93,3.93,0,0,1,.08-2.79c.05-.08.09-.12.1-.12h0a3.61,3.61,0,0,1,1,2.07.72.72,0,0,0,.93.5l1.83-.64A6.74,6.74,0,0,1,42.59,30Zm-1.28-2.71a3.91,3.91,0,0,0-1.44-2.22,1.41,1.41,0,0,0-1.18-.13,1.69,1.69,0,0,0-.85.73,5.33,5.33,0,0,0-.24,3.89,5.21,5.21,0,0,0,1.58,2.74,3,3,0,0,0,1.54.72,2.36,2.36,0,0,0,1.68-.41,4.29,4.29,0,0,0,1.52-2.13,8.45,8.45,0,0,0,.42-2.75l2.45-.87a18.42,18.42,0,0,1-.13,2.59,11.16,11.16,0,0,1-3.36,7.1,3.82,3.82,0,0,1-2.86,1A4.63,4.63,0,0,1,37.53,36a13.2,13.2,0,0,1-3.15-7.72c-.3-3.05.31-5.88,1.62-7.57a5.29,5.29,0,0,1,.94-.95,2.55,2.55,0,0,1,1.52-.56h0a2.39,2.39,0,0,1,1.48.55,4.85,4.85,0,0,1,.85.89,11.82,11.82,0,0,1,1.89,4.71,14,14,0,0,1,.19,1.39Zm8.17,7.07c-.75,2.73-2.35,6.29-5.73,7.72a7.81,7.81,0,0,1-1.72.51,8.43,8.43,0,0,1-.86.11A9.2,9.2,0,0,1,33.4,39.1a19.57,19.57,0,0,1-4.07-9c-.12-.62-.2-1.26-.26-1.89a18.69,18.69,0,0,1,.18-4.3,20.7,20.7,0,0,1,1.12-4.35,12,12,0,0,1,3-4.54,7.46,7.46,0,0,1,3-1.72,5.45,5.45,0,0,1,1.38-.18,5.51,5.51,0,0,1,1.95.36,8.27,8.27,0,0,1,3.09,2.25,12.44,12.44,0,0,1,1.38,1.84,15.08,15.08,0,0,1,1.13,2.19,19.1,19.1,0,0,1,1.35,5.57l-2.44.86a11.82,11.82,0,0,0-.18-1.17,13.11,13.11,0,0,0-2.15-5.29,5.7,5.7,0,0,0-1.12-1.17,3.82,3.82,0,0,0-2.38-.85,4,4,0,0,0-2.34.85,6.07,6.07,0,0,0-1.22,1.21c-1.55,2-2.25,5.13-1.91,8.57A14.69,14.69,0,0,0,36.5,37a6.09,6.09,0,0,0,3.82,2,5.2,5.2,0,0,0,3.92-1.32,12.51,12.51,0,0,0,3.82-8,19.49,19.49,0,0,0,.14-3.26l2.08-.73A27,27,0,0,1,49.48,34.34ZM2.88,41.72l.82-1,0,.71Zm1.69,1H4.22l.2-.07Z"/></g></g></svg>