<svg width="59" height="62" xmlns="http://www.w3.org/2000/svg">
    <path d="M58.663 8.935c-.41.473-.666.846-.996 1.136-7.512 6.597-14.827 13.4-21.62 20.744-.7.758-1.361.859-2.28.514-7.322-2.748-14.655-5.465-21.982-8.2-.509-.19-.995-.44-1.492-.662.024-.122.05-.243.075-.365.4.041.83.002 1.194.137 6.855 2.524 13.754 4.94 20.522 7.681 2.238.907 3.38.419 4.988-1.181 6.255-6.225 12.708-12.25 19.087-18.35.306-.292.617-.579 1.157-1.085-1.084-.401-1.966-.758-2.867-1.056-6.12-2.024-12.243-4.034-18.365-6.052-2.545-.84-5.057-.851-7.291.75a276.002 276.002 0 0 0-10.113 7.591c-4.157 3.28-8.226 6.67-12.328 10.018-3.16 2.58-3.092 7.034.397 9.16 2.472 1.506 5.22 2.603 7.933 3.659 5.845 2.274 11.753 4.389 17.62 6.606 1.035.39 1.79.372 2.637-.504 6.612-6.847 13.274-13.646 19.923-20.457.573-.587 1.164-1.156 1.748-1.733l.372.223c-.045.526-.046 1.062-.143 1.578-.443 2.336-.8 4.65.05 6.999.126.348-.28 1.038-.626 1.383-3.358 3.343-6.843 6.561-10.118 9.98-4.018 4.194-7.897 8.523-11.767 12.853-.7.785-1.282.964-2.22.601-8.215-3.178-16.43-6.357-24.672-9.466a11.063 11.063 0 0 0-3.764-.686c-.575-.004-1.407.657-1.686 1.23-.875 1.792-.367 4.174 1.498 5.56 2.082 1.546 4.347 2.978 6.738 3.956 7.039 2.876 14.183 5.495 21.277 8.235.953.368 1.541.092 2.223-.654 7.258-7.946 14.556-15.855 21.856-23.763.434-.47.975-.843 1.467-1.26l.32.315c-.23.306-.424.647-.694.913-8.043 7.925-15.663 16.24-22.912 24.896-.518.618-.996.827-1.776.525-7.454-2.882-14.95-5.661-22.36-8.654-2.241-.906-4.349-2.247-6.338-3.644C1.587 47.178.867 45.29 1.02 43.084c.17-2.456 1.542-3.672 3.961-3.053 2.237.572 4.407 1.421 6.576 2.23 5.958 2.221 11.9 4.484 17.85 6.732.964.364 1.905.827 2.9 1.063.46.109 1.24-.043 1.511-.375 6.555-8.032 14.135-15.07 21.487-22.331.367-.362.615-1.01.629-1.533.044-1.753-.045-3.509-.08-5.263-.006-.322 0-.643 0-1.331-.576.54-.91.832-1.22 1.15-6.475 6.62-12.96 13.231-19.404 19.882-.838.865-1.53 1.035-2.7.586-7.424-2.844-14.897-5.556-22.322-8.396-1.47-.562-2.866-1.387-4.18-2.265-3.16-2.111-2.961-5.979-1.833-8.31.272-.561.724-1.09 1.214-1.484C12.384 14.772 19.377 9.181 26.37 3.59 29.734.901 33.304.3 37.476 1.814c6.743 2.447 13.614 4.544 20.43 6.792.16.052.31.133.757.33" fill="#FD8204" stroke="#FD8204" stroke-width=".5" fill-rule="evenodd"/>
</svg>
