<svg xmlns="http://www.w3.org/2000/svg" viewBox="0 0 80.34 70.52"><defs><style>.cls-1{fill:#fd8204;stroke:#fd8204;stroke-width:0.5px;}</style></defs><g id="Layer_2" data-name="Layer 2"><g id="Layer_1-2" data-name="Layer 1"><path class="cls-1" d="M9.94,40.7a11.1,11.1,0,0,1-2.81-.48A9.44,9.44,0,0,1,4.56,39a6.7,6.7,0,0,1-1.47-1.4,9.46,9.46,0,0,1-1.55-2.85A10.11,10.11,0,0,1,1,31.47a7.7,7.7,0,0,1,.26-2.06A6,6,0,0,1,1.8,28a5.15,5.15,0,0,1,1.43-1.66,5.93,5.93,0,0,1,2.24-1,4.63,4.63,0,0,1,.92-.1,4.19,4.19,0,0,1,1.41.25A3.08,3.08,0,0,1,9,26.26a3,3,0,0,1,.61,1,3.25,3.25,0,0,1,.22,1.14,2.62,2.62,0,0,1-.23,1.08,2.25,2.25,0,0,1-.71.86,2.54,2.54,0,0,1-.74.36,2.82,2.82,0,0,1-.83.11,4.08,4.08,0,0,1-1.76-.43,3.66,3.66,0,0,1-1.35-1.12,9.71,9.71,0,0,1-1.42-2.91,11.23,11.23,0,0,1-.45-3.22,14.33,14.33,0,0,1,.9-4.89,14.94,14.94,0,0,1,4.23-6.15,11.67,11.67,0,0,1,3.07-1.89A9.7,9.7,0,0,1,14,9.44h.08a4.87,4.87,0,0,1,2.06.45,3.79,3.79,0,0,1,.85.56,3.33,3.33,0,0,1,.62.77,2.46,2.46,0,0,1,.29,1.12,1.77,1.77,0,0,1-.08.52,1.53,1.53,0,0,1-.23.46,1.58,1.58,0,0,1-.57.44,2,2,0,0,1-.75.22H16a2.88,2.88,0,0,1-2.3-1.16h0a3.13,3.13,0,0,1-.48-.92,2.83,2.83,0,0,1-.15-.9A3.32,3.32,0,0,1,13.24,10a6.24,6.24,0,0,1,1-1.86,15.53,15.53,0,0,1,2.59-2.53,25.29,25.29,0,0,1,2.61-1.79,17.15,17.15,0,0,1,8.69-2.39,16.18,16.18,0,0,1,7.8,2,5,5,0,0,1,1.39,1.12,3.75,3.75,0,0,1,.49.71,3.31,3.31,0,0,1,.28.8,2.47,2.47,0,0,1,0,.54,3.07,3.07,0,0,1-.45,1.58,2.83,2.83,0,0,1-1.18,1.12,2.89,2.89,0,0,1-1.3.3A3.26,3.26,0,0,1,34,9.28a2.8,2.8,0,0,1-1-.71,3.82,3.82,0,0,1-.68-1,2.39,2.39,0,0,1-.19-.9,2.1,2.1,0,0,1,.12-.7A3.37,3.37,0,0,1,33,4.79,8.1,8.1,0,0,1,34.9,3.28a13.14,13.14,0,0,1,2.16-1A22,22,0,0,1,44.15,1a14.8,14.8,0,0,1,5.62,1.06A12.34,12.34,0,0,1,52,3.31a15.76,15.76,0,0,1,3.44,3.15,9.29,9.29,0,0,1,1.14,1.87A4.72,4.72,0,0,1,57,10.19a3.3,3.3,0,0,1-.3,1.4,4.29,4.29,0,0,1-1,1.35,3.05,3.05,0,0,1-1,.64,3.3,3.3,0,0,1-1.16.21,3.18,3.18,0,0,1-1-.17,2.61,2.61,0,0,1-.67-.33,2.16,2.16,0,0,1-.72-.78,2.3,2.3,0,0,1-.28-1.15,4.75,4.75,0,0,1,0-.51,3.32,3.32,0,0,1,.66-1.47,4,4,0,0,1,1.25-1.07,10,10,0,0,1,2.55-1A11.67,11.67,0,0,1,58,7a15.21,15.21,0,0,1,4.56.74,18,18,0,0,1,4.15,2,13.54,13.54,0,0,1,4.64,5.17A14.8,14.8,0,0,1,73,21.67c0,.51,0,1-.07,1.53a5.36,5.36,0,0,1-.46,1.64,5.51,5.51,0,0,1-1.58,2,4.27,4.27,0,0,1-1.06.59,3.21,3.21,0,0,1-1.15.21,3.14,3.14,0,0,1-.89-.13,3.82,3.82,0,0,1-.91-.41,3.06,3.06,0,0,1-1.11-1.18,3.2,3.2,0,0,1-.39-1.54,3.31,3.31,0,0,1,.4-1.58,4.55,4.55,0,0,1,.69-1A3.49,3.49,0,0,1,67.72,21a4.1,4.1,0,0,1,1.45-.26,5.82,5.82,0,0,1,1.41.19,8.86,8.86,0,0,1,3.87,2.23,16.11,16.11,0,0,1,3.65,5.54,18,18,0,0,1,1.25,6.56c0,.58,0,1.17-.08,1.74A9.76,9.76,0,0,1,79,38.69,6.78,6.78,0,0,1,77.86,41a4.56,4.56,0,0,1-.85.85,4,4,0,0,1-1.08.59,6,6,0,0,1-2,.35,7.78,7.78,0,0,1-1.72-.21,11.52,11.52,0,0,1-2.51-1,20.09,20.09,0,0,1-2.33-1.42c-3.83-2.63-7.59-5.68-11.63-8.19a38,38,0,0,0-6.31-3.24,25.29,25.29,0,0,0-7-1.69c-.74-.07-1.48-.11-2.23-.11a23.7,23.7,0,0,0-6.8,1,20.55,20.55,0,0,0-6.14,3,10.87,10.87,0,0,0-1.76,1.57,6.54,6.54,0,0,0-.7,1,5.16,5.16,0,0,0-.48,1.1,4.5,4.5,0,0,0-.18,1.25,5,5,0,0,0,.29,1.63,6,6,0,0,0,1.31,2.14A6.36,6.36,0,0,0,27.8,41a7.75,7.75,0,0,0,3,.57,11.52,11.52,0,0,0,4.59-1A13,13,0,0,0,38,39a8.57,8.57,0,0,0,3-4.33,22,22,0,0,0,.73-3.27,28.75,28.75,0,0,1,.64-3.2A16.46,16.46,0,0,1,46.57,21a13,13,0,0,1,3.34-2.4A12.13,12.13,0,0,1,54,17.38a9.36,9.36,0,0,1,1.18-.08,7.67,7.67,0,0,1,1.66.18,5.42,5.42,0,0,1,1.5.6,3.91,3.91,0,0,1,1.3,1.29,3.28,3.28,0,0,1,.38.83,2.82,2.82,0,0,1,.14.86,3,3,0,0,1-.07.59h0a2.85,2.85,0,0,1-.57,1.14,3.56,3.56,0,0,1-.72.67,6,6,0,0,1-1.43.74,9.21,9.21,0,0,1-1.61.39,13.72,13.72,0,0,1-2,.14,18.36,18.36,0,0,1-7.05-1.53,30.44,30.44,0,0,1-6.43-3.75h0c-.87-.65-1.73-1.34-2.61-2a29.08,29.08,0,0,0-2.75-1.89A12.92,12.92,0,0,0,32,14.29a10.27,10.27,0,0,0-3-.46,9.87,9.87,0,0,0-3,.47,14.88,14.88,0,0,0-5.87,3.61,15.24,15.24,0,0,0-3.69,5.82A7.19,7.19,0,0,0,16,26a4.33,4.33,0,0,0,.15,1.13,3.08,3.08,0,0,0,.52,1,3.47,3.47,0,0,0,.77.76,4.24,4.24,0,0,0,1.44.68,6,6,0,0,0,1.64.21,9.43,9.43,0,0,0,3.32-.65,9.74,9.74,0,0,0,1.45-.7,6.41,6.41,0,0,0,1.16-.88,3.82,3.82,0,0,0,.83-1.19,3.2,3.2,0,0,0,.31-1.34,2.67,2.67,0,0,0-.11-.75,2.26,2.26,0,0,0-.63-1,2.87,2.87,0,0,0-1.18-.61,4.39,4.39,0,0,0-1.17-.16,4.56,4.56,0,0,0-1.33.2,6.89,6.89,0,0,0-2.11,1.07,15.11,15.11,0,0,0-2.65,2.59c-.78.94-1.46,1.9-2,2.67a18.34,18.34,0,0,0-2.23,4,12.37,12.37,0,0,0-.91,4.49,9.4,9.4,0,0,0,.3,2.4,8.85,8.85,0,0,0,4.13,5.51,11.43,11.43,0,0,0,4,1.42,16.14,16.14,0,0,0,2.68.21,25.72,25.72,0,0,0,3-.2,41.61,41.61,0,0,0,4.8-1,21.06,21.06,0,0,1,4.7-.67l.64,0a49.28,49.28,0,0,1,5.24.47,14.19,14.19,0,0,1,4.78,1.59c1.73,1,3.47,2.1,5.3,3a19.07,19.07,0,0,0,2.82,1.13,11.93,11.93,0,0,0,3,.51H59a8,8,0,0,0,2.27-.31,5.81,5.81,0,0,0,2-1,5.42,5.42,0,0,0,1.57-2.08A6.58,6.58,0,0,0,65.4,46a6.68,6.68,0,0,0-.54-2.65,8.26,8.26,0,0,0-2.37-3.08,11,11,0,0,0-3.43-1.88,6,6,0,0,0-1.92-.29,15.67,15.67,0,0,0-3,.37,20.1,20.1,0,0,1-2.85.43l-.67,0c-.53,0-1.1,0-1.69-.05s-1.19,0-1.79,0a10.59,10.59,0,0,0-3.05.36,5.2,5.2,0,0,0-1.36.61,4.28,4.28,0,0,0-1.12,1.05,6.28,6.28,0,0,0-1,1.89,6.38,6.38,0,0,0-.31,2,8.38,8.38,0,0,0,.53,2.82,14,14,0,0,0,2.23,3.85,18.64,18.64,0,0,0,3,3c.89.71,1.81,1.36,2.7,2a22.94,22.94,0,0,1,2.53,2.15,9.46,9.46,0,0,1,2.16,3.36,10.92,10.92,0,0,1,.65,3.87c0,.48,0,1-.07,1.47a8.7,8.7,0,0,1-.71,2.51A.37.37,0,1,0,54,70a9.12,9.12,0,0,0,.78-2.73c0-.52.07-1,.07-1.54a11.6,11.6,0,0,0-.7-4.13A10.05,10.05,0,0,0,51.82,58a22.76,22.76,0,0,0-2.6-2.22c-.9-.69-1.82-1.34-2.69-2a17.37,17.37,0,0,1-3.7-4,12.12,12.12,0,0,1-1.27-2.48,7.59,7.59,0,0,1-.49-2.57A5.75,5.75,0,0,1,41.34,43a5.94,5.94,0,0,1,.89-1.68,3.52,3.52,0,0,1,.94-.87A5,5,0,0,1,45,39.73a11.75,11.75,0,0,1,2.18-.17c.58,0,1.17,0,1.76,0s1.17,0,1.72,0l.71,0a21,21,0,0,0,3-.44,15.13,15.13,0,0,1,2.83-.36,5.32,5.32,0,0,1,1.69.25A10.25,10.25,0,0,1,62,40.84a7.55,7.55,0,0,1,2.16,2.8A5.93,5.93,0,0,1,64.66,46a5.7,5.7,0,0,1-.46,2.28,4.58,4.58,0,0,1-1.34,1.8,5,5,0,0,1-1.79.9,7.12,7.12,0,0,1-2.06.28h-.29a11.56,11.56,0,0,1-2.81-.48,21.72,21.72,0,0,1-4-1.78c-1.32-.73-2.62-1.54-3.94-2.28a14.74,14.74,0,0,0-5-1.68,49.59,49.59,0,0,0-5.32-.48l-.68,0a21.84,21.84,0,0,0-4.87.69,43.7,43.7,0,0,1-4.71,1,26.89,26.89,0,0,1-3,.19,15.69,15.69,0,0,1-2.56-.2h0A10.14,10.14,0,0,1,17,44.12a7.78,7.78,0,0,1-1.69-1.88,8.28,8.28,0,0,1-1.06-2.44A9.36,9.36,0,0,1,14,37.58a11.49,11.49,0,0,1,.86-4.22A17.57,17.57,0,0,1,17,29.52c.42-.59.91-1.27,1.45-2a16.81,16.81,0,0,1,2.79-2.92,6.66,6.66,0,0,1,1.59-1,4.24,4.24,0,0,1,1.67-.35,4.17,4.17,0,0,1,1,.12,2.24,2.24,0,0,1,.64.28,1.5,1.5,0,0,1,.56.59,1.7,1.7,0,0,1,.17.76,2.45,2.45,0,0,1-.24,1,3.35,3.35,0,0,1-.68,1,5.33,5.33,0,0,1-1,.77,8.54,8.54,0,0,1-2.08.9,8.35,8.35,0,0,1-2.31.35,5.1,5.1,0,0,1-1.87-.32,3.36,3.36,0,0,1-.77-.42,2.76,2.76,0,0,1-.62-.61,2.5,2.5,0,0,1-.4-.8,3.48,3.48,0,0,1-.12-.93,6.61,6.61,0,0,1,.38-2,14.33,14.33,0,0,1,3.51-5.53A14.17,14.17,0,0,1,26.22,15,9,9,0,0,1,29,14.57a9.56,9.56,0,0,1,2.8.43,12.07,12.07,0,0,1,2.69,1.19A26.43,26.43,0,0,1,37.16,18c.87.67,1.73,1.36,2.62,2a31.12,31.12,0,0,0,6.58,3.84,19.1,19.1,0,0,0,7.34,1.59,15.11,15.11,0,0,0,2.12-.15A8.59,8.59,0,0,0,57.38,25a6.53,6.53,0,0,0,2.13-1.14,4.12,4.12,0,0,0,.78-.89,3.52,3.52,0,0,0,.48-1.12h0a3.2,3.2,0,0,0,.09-.75A3.59,3.59,0,0,0,60.69,20a4.25,4.25,0,0,0-.78-1.45,4.75,4.75,0,0,0-1.23-1.09A6.05,6.05,0,0,0,57,16.76a8,8,0,0,0-1.82-.2,10.39,10.39,0,0,0-1.26.08,12.79,12.79,0,0,0-4.3,1.28,14.4,14.4,0,0,0-5,4.17A17.76,17.76,0,0,0,41.67,28c-.41,1.44-.58,2.93-.85,4.36a15.79,15.79,0,0,1-.51,2.08,8.55,8.55,0,0,1-.88,1.92,7.83,7.83,0,0,1-1.89,2.05,11.05,11.05,0,0,1-2.46,1.45,10.74,10.74,0,0,1-4.29,1,6.91,6.91,0,0,1-2.7-.52,5.49,5.49,0,0,1-2.29-1.85,5.15,5.15,0,0,1-.68-1.29,4.2,4.2,0,0,1-.25-1.39,3.68,3.68,0,0,1,.15-1,4.62,4.62,0,0,1,.41-.94,6.06,6.06,0,0,1,1-1.24,12.84,12.84,0,0,1,1.26-1.06,19.73,19.73,0,0,1,5.93-2.91,22.83,22.83,0,0,1,6.58-1c.72,0,1.44,0,2.16.1a24.66,24.66,0,0,1,6.78,1.65,44.8,44.8,0,0,1,9.14,5.12c2.92,2,5.75,4.24,8.65,6.23a19.44,19.44,0,0,0,3.28,1.88,11.36,11.36,0,0,0,1.81.62,8.57,8.57,0,0,0,1.89.23,6.79,6.79,0,0,0,2.28-.39,5,5,0,0,0,1.64-1,6.42,6.42,0,0,0,1.54-2.31A9.94,9.94,0,0,0,80,37.09c.06-.6.09-1.21.09-1.82a18.35,18.35,0,0,0-1.31-6.83A16.76,16.76,0,0,0,75,22.64a9.42,9.42,0,0,0-2.65-1.84,8,8,0,0,0-1.55-.57,6.29,6.29,0,0,0-1.6-.22,5,5,0,0,0-1.16.14,4,4,0,0,0-1.6.76,5,5,0,0,0-1.28,1.54,4.06,4.06,0,0,0,0,3.83,3.93,3.93,0,0,0,1.38,1.46,4.27,4.27,0,0,0,1.1.49,3.79,3.79,0,0,0,1.09.16,4.07,4.07,0,0,0,1.85-.45A5.71,5.71,0,0,0,72.66,26a6.19,6.19,0,0,0,1-2.73,14.59,14.59,0,0,0,.08-1.61,15.63,15.63,0,0,0-1.69-7.1,14.23,14.23,0,0,0-4.9-5.45,18,18,0,0,0-4.33-2A15.59,15.59,0,0,0,58,6.29a11.53,11.53,0,0,0-5.61,1.37,4.8,4.8,0,0,0-1.49,1.27,4,4,0,0,0-.8,1.8,4.7,4.7,0,0,0,0,.63,3.31,3.31,0,0,0,.29,1.36,3.19,3.19,0,0,0,.55.79,3.46,3.46,0,0,0,1.19.76,3.92,3.92,0,0,0,1.41.26A4.14,4.14,0,0,0,55,14.27a3.74,3.74,0,0,0,1.28-.79,5,5,0,0,0,1.18-1.58,4.14,4.14,0,0,0,.36-1.71,5.15,5.15,0,0,0-.22-1.45,8.45,8.45,0,0,0-1.26-2.41,15.41,15.41,0,0,0-3-3.05,19,19,0,0,0-1.66-1.14,13.15,13.15,0,0,0-1.54-.78A15.52,15.52,0,0,0,44.15.25a22.66,22.66,0,0,0-7.33,1.33,14.39,14.39,0,0,0-1.73.75,11.44,11.44,0,0,0-1.33.8,7.29,7.29,0,0,0-1.67,1.55,3.68,3.68,0,0,0-.52,1,2.84,2.84,0,0,0-.2,1,2.88,2.88,0,0,0,.26,1.19,4.4,4.4,0,0,0,.8,1.2,3.65,3.65,0,0,0,1.28.89,4,4,0,0,0,1.52.31,3.58,3.58,0,0,0,3.12-1.78,3.86,3.86,0,0,0,.55-2,3.23,3.23,0,0,0-.07-.69,3.76,3.76,0,0,0-.35-1,4.64,4.64,0,0,0-.93-1.23,6.09,6.09,0,0,0-1.24-.91A17,17,0,0,0,28.15.64a17.7,17.7,0,0,0-9.06,2.5,23.09,23.09,0,0,0-4.2,3.15,10.69,10.69,0,0,0-1.8,2.22,6,6,0,0,0-.56,1.21A4.35,4.35,0,0,0,12.32,11a3.54,3.54,0,0,0,.19,1.14,3.7,3.7,0,0,0,.58,1.11h0A3.63,3.63,0,0,0,16,14.73a2.55,2.55,0,0,0,.39,0,3.12,3.12,0,0,0,1-.28,2.15,2.15,0,0,0,1.18-1.35,2.65,2.65,0,0,0,.11-.74,3,3,0,0,0-.39-1.47,3.67,3.67,0,0,0-.77-1A4.67,4.67,0,0,0,15.91,9,5.58,5.58,0,0,0,14.1,8.7H14A10.55,10.55,0,0,0,9.08,10a14.43,14.43,0,0,0-5.44,5.52A15.5,15.5,0,0,0,1.57,23.1a12,12,0,0,0,.48,3.43,10.63,10.63,0,0,0,1.53,3.14A4.34,4.34,0,0,0,5.2,31a4.74,4.74,0,0,0,2.09.51,3.67,3.67,0,0,0,1-.14,3.06,3.06,0,0,0,1-.47,2.9,2.9,0,0,0,1-1.15,3.38,3.38,0,0,0,.3-1.39A4,4,0,0,0,10.27,27a3.75,3.75,0,0,0-2.2-2.15,4.84,4.84,0,0,0-1.68-.3,5,5,0,0,0-1.09.12A6.55,6.55,0,0,0,3,25.6a6,6,0,0,0-1.26,1.15A6.71,6.71,0,0,0,.61,29a8.77,8.77,0,0,0-.36,2.52,10.94,10.94,0,0,0,1,4.58,9.76,9.76,0,0,0,1.22,2,7.91,7.91,0,0,0,1.63,1.54,9.88,9.88,0,0,0,2.77,1.35,11.31,11.31,0,0,0,3,.52.37.37,0,1,0,0-.74Z"/></g></g></svg>