<svg width="40" height="62" xmlns="http://www.w3.org/2000/svg">
    <path d="M15.69 22.18c2.192 1.763 4.943 1.32 6.275.235.454-.37.543-1.187.8-1.8-.623-.245-1.36-.834-1.846-.672-1.707.57-3.328 1.398-5.229 2.237m14.59 25.214c-.732-.8-1.175-1.285-1.621-1.769-3.194-3.46-3.808-7.718-1.782-11.967 1.287-2.699 2.656-5.373 3.715-8.162 1.57-4.134 2.635-8.393 1.697-12.888-1.05-5.026-4.5-7.705-9.44-6.437-1.918.491-3.732 1.37-5.61 2.023-3.314 1.152-6.657 2.225-9.959 3.411-2.224.8-4.051 2.086-4.672 4.57-.213.852-.36 1.735-.696 2.538-1.051 2.504.81 4.224 3.431 3.633 1.243-.28 2.472-.636 3.694-1.001 1.633-.488 3.29-.945 4.862.044.902.569 1.537.36 2.39-.115 1.415-.788 2.897-1.541 4.444-1.982 1.376-.393 2.477.273 2.81 1.218.32.91-.27 1.993-1.5 2.712-1.994 1.165-4.063 1.126-6.082.161-.806-.385-1.377-.294-1.925.28-1.677 1.755-3.54 3.38-4.951 5.33-2.633 3.638-3.96 7.755-3.194 12.31.483 2.87 1.91 5.018 4.912 5.876 4.72 1.349 9.526 1.608 14.375 1.186 1.593-.138 3.16-.59 5.102-.97M21.323 2.616c1.372-1.052 3.025-1.423 4.704-1.571 4.086-.362 7.179 1.446 9.554 4.638 4.556 6.123 5.185 12.801 2.686 19.872-.996 2.818-2.111 5.594-3.163 8.392-.644 1.712-.569 3.38.004 5.143 1.197 3.69.442 5.697-2.71 7.946-.125.09-.236.195-.796.66.534.312 1.08.48 1.402.845 1.124 1.278 2.353 2.518 3.198 3.973 1.116 1.92.566 3.832-1.219 5.187-2.41 1.83-5.296 2.362-8.183 2.791-5.396.803-10.774.42-16.113-.524-1.68-.297-3.368-.734-4.948-1.368-3.198-1.283-4.063-4.112-2.19-7.01.64-.992 1.559-1.805 2.35-2.7.141.115.283.23.423.346-.17.246-.326.503-.511.738-.637.81-1.405 1.546-1.905 2.433-1.226 2.18-.674 4.307 1.633 5.283 2.032.86 4.24 1.548 6.423 1.756 4.245.403 8.527.554 12.793.54 2.835-.008 5.624-.683 8.238-1.88.503-.232.99-.525 1.433-.858 1.766-1.33 2.27-2.875 1.056-4.684-1.092-1.626-2.604-2.984-4.022-4.368-.27-.264-.999-.23-1.453-.104-6.337 1.744-12.663 1.374-18.968-.105-3.723-.873-5.95-3.906-6.062-8.192-.14-5.413 2.04-9.935 5.6-13.856 1.088-1.2 2.33-2.26 3.606-3.483-1.382-1.193-2.848-.988-4.33-.626-1.701.415-3.377 1.061-5.1 1.226-2.842.272-4.207-1.376-3.618-4.137.273-1.284.68-2.547 1.127-3.783.922-2.555 3.134-3.62 5.453-4.476 4.299-1.589 8.616-3.125 12.929-4.673 2.112-.759 4.313-1.065 6.488-.542 3.234.778 4.819 3.216 5.634 6.241 1.068 3.968.584 7.902-.75 11.671-1.22 3.446-2.713 6.812-4.312 10.103-2.297 4.73-1.415 9.436 2.603 12.851.608.517 1.113.471 1.729.122 2.527-1.433 3.621-4.024 2.487-6.884-1.01-2.547-.49-4.841.379-7.202 1.129-3.066 2.442-6.08 3.343-9.213 1.967-6.836.397-12.991-4.294-18.27-2.952-3.32-7.102-4.03-11.289-2.27-.394.166-.823.249-1.236.37l-.103-.348" fill="#FD8204" stroke="#FD8204" stroke-width=".5" fill-rule="evenodd"/>
</svg>
