<svg xmlns="http://www.w3.org/2000/svg" viewBox="0 0 82.13 52.25"><defs><style>.cls-1{fill:#fd8204;stroke:#fd8204;stroke-width:0.25px;}</style></defs><g id="Layer_2" data-name="Layer 2"><g id="Layer_1-2" data-name="Layer 1"><path class="cls-1" d="M78.61,52.12A4.76,4.76,0,0,1,77.36,52a.3.3,0,0,1-.2-.18.32.32,0,0,1,0-.27A1.1,1.1,0,0,1,78,51.1C79,51,80,51,80.9,51a4.11,4.11,0,0,0,.16-.82c0-.13,0-.27,0-.41a3,3,0,0,0,0-.91h-.65a16.85,16.85,0,0,0-2.84-.16h0l-1.86-.06c0,.23,0,.45,0,.67v0a9.2,9.2,0,0,0,.29,2l.08,0,0,0,.06,0h0a.27.27,0,0,1,.07.13.11.11,0,0,0,0,.05h0a.28.28,0,0,1,0,.13l0,.07h0a.42.42,0,0,1-.14.09h-.2c-19-.17-38.37-.17-57.08-.16H6.36a.42.42,0,0,1-.14-.09h0v0h0a.24.24,0,0,1,0-.14h0v0c0-.21,0-.43,0-.64-1.88,0-3.82,0-5.72,0a.29.29,0,0,1-.3-.29.28.28,0,0,1,.28-.3c1.92-.05,3.86,0,5.75,0,0-.11,0-.23,0-.34s0-.51,0-.77V49a7.52,7.52,0,0,0-.06-1.68l0,0-.06-.06a.33.33,0,0,1,0-.14H6v0H6a.34.34,0,0,1,.06-.15h0l0,0h0a.27.27,0,0,1,.19-.08h.19c.86.09,1.74.15,2.69.18.29-7.54.52-16.68.32-25.88,0-.24,0-.47,0-.69a6.9,6.9,0,0,0-.18-1.63v-.05a.78.78,0,0,0-.14-.29h0l0-.05A.47.47,0,0,1,9,18.21H9v-.05A.24.24,0,0,1,9.05,18h0a.1.1,0,0,1,0-.05h0a.28.28,0,0,1,.15-.08h.12l7,.06c0-.28,0-.56,0-.83-1.28,0-2.7,0-4.33-.11h0l-.32,0a4.72,4.72,0,0,1-1.39-.26l0,0a.84.84,0,0,0-.19-.07,1.2,1.2,0,0,1-.36-.15.29.29,0,0,1-.13-.24v-.11a.27.27,0,0,1,.09-.21.9.9,0,0,1,.64-.25l1.84-.08L14,15.5c2.25-.07,4.55-.1,6.78-.12l2.91,0a3.16,3.16,0,0,0-.11-.93,2.07,2.07,0,0,0-.5,0h-.25a44.94,44.94,0,0,1-5.51-.06.89.89,0,0,1-.61-.22.87.87,0,0,1-.33-.72c0-.52,0-1.05,0-1.56,0-.77-.06-1.58,0-2.37h0c.07-.88.11-1.78.15-2.65,0-1.16.1-2.37.23-3.56a.9.9,0,0,1,.12-.36l-.68-.08a3.28,3.28,0,0,1-1.31-.36l0,0-.07-.05c-.19-.14-.73-.52-.38-1A2.51,2.51,0,0,1,16.4.43h1a29.85,29.85,0,0,1,6.25.06l.35,0a5.15,5.15,0,0,1,1.51.26l.06,0,.12,0a.58.58,0,0,1,.4.23.39.39,0,0,1,0,.32C26,2,25.33,2,24.89,2h-.07l.05,0h0l.05.08h0a.32.32,0,0,1,0,.09h0v0c.09,4,.13,8.19.11,13.05q6.65,0,13.33-.06c0-.63,0-1.3,0-2-.11-1-.22-2-.38-3.06l0-.11c0-.1,0-.12-.06-.14a1,1,0,0,0-.46-.09l-.33,0a15.12,15.12,0,0,0-4.16.33A7.86,7.86,0,0,0,32.54,12v1.84a1.14,1.14,0,0,1-.1.44.56.56,0,0,1,0,.12.13.13,0,0,1,0,.06h0a.27.27,0,0,1-.08.07l-.09,0H32l-.08,0h0a.44.44,0,0,1-.08-.11h0a1.14,1.14,0,0,1-.06-.39,4.73,4.73,0,0,1,0-.75c0-.12,0-.24,0-.36a1.92,1.92,0,0,1,.11-.55v-.05c0-.1,0-.2,0-.3,0-2.56,0-5.16-.16-7.73h0a1,1,0,0,1,.3-.79h-.22a3.29,3.29,0,0,1-2.05-.67h0a.9.9,0,0,1-.25-.88l0-.06a1.35,1.35,0,0,1,.51-.5l.08-.05,0,0A10,10,0,0,1,33.3.44,14.8,14.8,0,0,1,39,.72l0,0,.17.07.21.09h0a2.37,2.37,0,0,1,.81.75A1,1,0,0,1,40,2.91l0,0a2,2,0,0,1-.52.15l-.2,0h-.16c0,4,0,8.12,0,12.12l7.38,0c-.2-2.78-.17-5.56-.14-8.25,0-1.3,0-2.64,0-4V3h0a.34.34,0,0,1,.08-.17v0l0,0a.31.31,0,0,1,.19-.06h0l2.07.11a49.72,49.72,0,0,0,5.34.13,1.09,1.09,0,0,0,0-.18v0c0-.11-.22-.2-.36-.2h0l-1.82,0c-1.2,0-2.44,0-3.69-.13l-.79-.08-.79-.08h0c-.84-.12-1-.62-1.06-.9a.25.25,0,0,1,0-.17A1.61,1.61,0,0,1,46.94.33a22.63,22.63,0,0,1,8.59.49h0l.49.16a1.42,1.42,0,0,1,.88.77v0a1.19,1.19,0,0,1-.55,1.3l0,0a4.48,4.48,0,0,1-.77.3h0l-.86.08c0,.3,0,.6,0,.89s0,.54,0,.81c0,2.52,0,5.1,0,7.59,0,.82,0,1.65,0,2.48H61c.13-3.66.19-7.59.19-12a.09.09,0,0,1,0-.07v0h0A.24.24,0,0,1,61.25,3a.31.31,0,0,1,.2-.07h.06a42.79,42.79,0,0,0,6.65.23s0,0,0,0h-.23A47.09,47.09,0,0,1,62.77,3a6.48,6.48,0,0,1-2.9-.87.22.22,0,0,1-.1-.11.73.73,0,0,1,0-.7,1.08,1.08,0,0,1,.82-.54A37.11,37.11,0,0,1,69.47.71h0a1.8,1.8,0,0,1,1.1.6h0a1.37,1.37,0,0,1-.19,1.8l0,0a2.3,2.3,0,0,1-1.06.55h-.07q0,5.81.08,11.61l5.77,0a1.74,1.74,0,0,1,.78.2l0,0a.81.81,0,0,1,.24.8c0,.05,0,.1,0,.14v.05a9.09,9.09,0,0,1-.46,1.74.28.28,0,0,1-.23.18c-.47.07-.94.12-1.41.16a2.8,2.8,0,0,1,.35.25l0,0A2.31,2.31,0,0,1,75,20.27v0c.16,4.07.19,8.19.23,12.17,0,5.09.09,10.35.4,15.55l1.91.06a16.66,16.66,0,0,1,2.9.17h.79a.28.28,0,0,1,.27.17,3,3,0,0,1,.15,1.35c0,.14,0,.27,0,.4v0a6.66,6.66,0,0,1-.12.76h.2a.3.3,0,0,1,0,.59h-.44a2.39,2.39,0,0,1-.13.21.27.27,0,0,1-.18.11c-.52.11-1,.16-1.54.22h-.12Zm-49.88-1c15.42,0,31.15,0,46.68.16a9.27,9.27,0,0,1-.28-2c0-.24,0-.48,0-.71-10.47-.31-21.08-.42-31.36-.54L31,47.9c-6.65-.06-13.41-.17-20.06-.33H9.73q-.06,1.52-.12,2.94a.29.29,0,0,1,.09.21.32.32,0,0,1-.15.25h0a.47.47,0,0,1-.19.06h0A.3.3,0,0,1,9,50.82l-.12,0H6.73v.3l0,0h22Zm-22-.92H9c0-.86.07-1.74.11-2.66-.85,0-1.64-.07-2.41-.14a11,11,0,0,1,0,1.59v.09c0,.26,0,.52,0,.77S6.75,50.07,6.75,50.19Zm3-3.22H11c6.65.17,13.4.28,20.06.33l12.68.15c10.26.12,20.85.24,31.32.54-.31-5.2-.35-10.45-.4-15.54,0-4-.07-8.08-.23-12.13a1.65,1.65,0,0,0-.39-1,4.48,4.48,0,0,0-1.1-.62c-1.2.08-2.39.1-3.58.1.05,8.18.08,16.31.11,24.28v.06a4.21,4.21,0,0,1-3.59,3.39h0a4.12,4.12,0,0,1-3.22-1.29,3.89,3.89,0,0,1-.89-2.35c-.28-2.82-.32-5.68-.37-8.45,0-1,0-2.1-.06-3.15-.06-1.85-.1-3.72-.14-5.52s-.08-3.67-.14-5.52c0-.47,0-.94,0-1.41q-3.12,0-6.25,0c0,8.07,0,16.3-.12,24.4a.09.09,0,0,0,0,.05c-.49,2.44-1.84,3.2-2.6,3.43a3.47,3.47,0,0,1-2.77-.18,4,4,0,0,1-1.18-1v0a6.1,6.1,0,0,1-1-3.37h0c-.1-3.57-.15-7.19-.21-10.7-.06-4.13-.12-8.41-.26-12.6V18.8l-2.6,0-4.81,0c0,8,0,16.15-.12,24.2A.29.29,0,0,1,39,43l-.09.29A5,5,0,0,1,38.13,45h0a5.12,5.12,0,0,1-1.68,1.27h0l0,0a4,4,0,0,1-2.94.3h0a3.74,3.74,0,0,1-1.91-3.24c0-.63,0-1.25-.05-1.85s0-1.22-.05-1.85c0-1.2,0-2.42,0-3.6,0-.59,0-1.19,0-1.79-.06-1.52-.06-3-.06-4.52h0c.08-3.3.15-7.12.06-11L25,18.64c0,.35,0,.71,0,1.07,0,2.46,0,4.94,0,7.35,0,4.41,0,9-.24,13.49a10.77,10.77,0,0,1-.5,2.9A4.38,4.38,0,0,1,24,44a3.55,3.55,0,0,0-.21.5v0a3.27,3.27,0,0,1-1.37,1.49h0a3.52,3.52,0,0,1-2,.3h0a6.08,6.08,0,0,1-2.57-1l-.05,0a1.56,1.56,0,0,1-.27-.4l-.09-.21-.07-.17,0,0a14.92,14.92,0,0,1-.57-3.59c0-.17,0-.34,0-.51-.59-7.67-.59-15.26-.48-21.85-2.15,0-4.33-.05-6.49-.06l0,.05v.07a7.88,7.88,0,0,1,.2,1.77c0,.22,0,.45,0,.68h0C10.28,30.27,10,39.43,9.76,47Zm38.76-1.78a3.11,3.11,0,0,0,1,.85h0a2.87,2.87,0,0,0,2.33.14c.63-.19,1.76-.84,2.19-3,.17-8.09.17-16.3.13-24.36h-.95a7.51,7.51,0,0,0,.23,1.34v0c.08.28.1.32.21.35h0l.07,0h0a.28.28,0,0,1,.1.09h0a.59.59,0,0,1,0,.08h0a.25.25,0,0,1,0,.12h0a.14.14,0,0,1,0,.07h0a.24.24,0,0,1-.06.09h0l-.1.07h0l-.08,0h0a.87.87,0,0,1-.28,0l-2.42-.11-.62,0H50a4.22,4.22,0,0,1-2.67-.73,1.85,1.85,0,0,1-.14-.14c.11,3.78.17,7.6.22,11.31.06,3.5.11,7.13.21,10.69A5.27,5.27,0,0,0,48.52,45.19ZM33.67,46a3.47,3.47,0,0,0,2.5-.31l0,0a4.47,4.47,0,0,0,1.46-1.11,4.24,4.24,0,0,0,.67-1.46c0-.08,0-.17.08-.25.16-8,.15-16.21.12-24.16l-3.8,0H32c.09,3.91,0,7.73-.06,11,0,1.53,0,3,0,4.5h0c0,.6,0,1.21,0,1.79,0,1.18,0,2.39,0,3.58,0,.63,0,1.25.06,1.85s0,1.22.05,1.85A3.13,3.13,0,0,0,33.67,46ZM61.58,18.85c0,.46,0,.92.05,1.38h0c0,1.85.1,3.72.14,5.52s.08,3.67.13,5.52c0,1.06.05,2.13.07,3.16,0,2.76.09,5.61.37,8.4h0a3.31,3.31,0,0,0,.74,2A3.5,3.5,0,0,0,65.83,46a3.15,3.15,0,0,0,2-.94,4,4,0,0,0,1.08-1.95c0-8-.06-16.08-.11-24.24H65.47Zm-41,26.94a3,3,0,0,0,1.62-.24,2.74,2.74,0,0,0,1.12-1.2,4.23,4.23,0,0,1,.22-.57,2.61,2.61,0,0,0,.2-.5v0a9.85,9.85,0,0,0,.47-2.74c.25-4.5.24-9.05.24-13.46,0-2.41,0-4.9,0-7.36,0-.36,0-.71,0-1.07l-5.29-.06-2.27,0c-.11,6.57-.11,14.14.47,21.8,0,.17,0,.34,0,.5a14.29,14.29,0,0,0,.54,3.43,1.19,1.19,0,0,1,.08.2c0,.06.05.12.07.17a.86.86,0,0,0,.15.22A5.51,5.51,0,0,0,20.53,45.79Zm26.59-27a1.71,1.71,0,0,0,.58,1,3.57,3.57,0,0,0,2.3.59h.34l.63,0,2,.09c0-.07,0-.13,0-.18v-.05a8.45,8.45,0,0,1-.26-1.49l-5.5-.05Zm7.62-.54q3.13,0,6.25,0c0-.28,0-.55,0-.82v-.64c-2.09.21-4.21.25-6.26.28Zm-1.57,0h1V17.1l-.8,0h-.21C53.14,17.51,53.15,17.89,53.17,18.26Zm8.42-2.4c0,.54,0,1.07,0,1.6,0,.26,0,.53,0,.8l3.88,0h3.3v-.07h-.09c-.3,0-.39-.38-.39-.51,0-.58,0-1.17,0-1.76ZM39.13,18.14l4.82.05,8.63.07q0-.69,0-1.38v-.12h0a.25.25,0,0,1,.06-.17l0,0h0a.36.36,0,0,1,.17-.07.31.31,0,0,1,.19.06s.08,0,.19,0h.95c0-.23,0-.45,0-.68h-7c0,.28,0,.56.08.84v0a.71.71,0,0,0,0,.16.46.46,0,0,1,.17.17h0a.29.29,0,0,1,.07.28.29.29,0,0,1-.22.21.47.47,0,0,1-.4-.1l-.07-.07h-.58l-1.55-.07a53.62,53.62,0,0,0-5.53-.08Zm30.22,0v.05h.82l-.71,0ZM32,18.1h2.76l3.8,0v-.86h0a.35.35,0,0,1-.18,0l-.2,0h-.06l-.08,0h0a.41.41,0,0,1-.11-.07h0a.41.41,0,0,1-.07-.11h0s0,0,0-.06h0a.28.28,0,0,1,0-.13h0l0,0h0a.29.29,0,0,1,.16-.1h0c.12,0,.22-.2.25-.39s0-.32,0-.48q-6.68,0-13.3.06v.49c1.75.08,3.52.08,5.25.07h1.33a.3.3,0,0,1,.3.28C32,17.21,32,17.66,32,18.1Zm37.36-.5h.15a11.39,11.39,0,0,1,3.53.52c.73-.05,1.46-.11,2.19-.21a8.19,8.19,0,0,0,.35-1.44.88.88,0,0,1,0-.17,1.12,1.12,0,0,0,0-.26,1.1,1.1,0,0,0-.48-.12l-5.77,0C69.34,16.46,69.34,17,69.34,17.6Zm-44.29.45,6.34.05,0-1H30.31c-1.73,0-3.5,0-5.26-.08ZM16.9,18l2.27,0,5.29.06c0-.37,0-.73,0-1.09l-.9-.06h0a.3.3,0,0,1-.16-.08h0l-.05-.07h0a.28.28,0,0,1,0-.13.17.17,0,0,1,0-.07.23.23,0,0,1,.06-.12.27.27,0,0,1,.08-.07l.08,0h0a1,1,0,0,0,.06-.16v-.22l-2.88,0c-2.23,0-4.53.05-6.77.12l-1.85.09-1.47.06a4.11,4.11,0,0,0,1.05.16l.33,0a38.48,38.48,0,0,0,4.46.1h.12a.35.35,0,0,1,.14,0h0a.38.38,0,0,1,.09.09.5.5,0,0,1,0,.13h0v0C16.91,17.19,16.9,17.57,16.9,18Zm23.91-1.35c1.3,0,2.6.06,3.87.12l1.54.07h.41v-.06c0-.3-.06-.59-.08-.89H39.12v.8C39.68,16.62,40.25,16.61,40.81,16.61Zm13.92-.77v.66c2,0,4.15-.07,6.22-.27,0,0,0-.09,0-.13s0-.1,0-.15h0v-.08Zm-30.55.52h.29v-.45h-.25v.25a.29.29,0,0,1,0,.09l0,.06v0Zm-.91-2.56a1.73,1.73,0,0,1,.58.08.3.3,0,0,1,.18.17,3.22,3.22,0,0,1,.21,1.28h.23c0-4.73,0-8.86-.1-12.73l-1.72.14a38.75,38.75,0,0,1-5.08.2.52.52,0,0,0-.32.38c-.12,1.17-.17,2.36-.23,3.52,0,.87-.08,1.77-.15,2.66s0,1.56,0,2.32c0,.52,0,1,0,1.58a.3.3,0,0,0,.09.24l0,0a.32.32,0,0,0,.23.08h0a46.39,46.39,0,0,0,5.46.05h.51ZM61.6,15.27l6.66,0c0-1-.07-2.09-.19-3.12l0-.08A15,15,0,0,0,64,12h0a6.16,6.16,0,0,0-1.77.17,4.93,4.93,0,0,0-.47,2.09C61.68,14.6,61.65,14.94,61.6,15.27Zm-12,0h4.52c0-.83,0-1.65,0-2.48,0-2.49,0-5.06,0-7.59,0-.28,0-.56,0-.83s0-.55,0-.84a50.81,50.81,0,0,1-5.4-.12c-.54,0-1.1-.07-1.66-.09a.22.22,0,0,1-.09.07c0,1.22,0,2.44,0,3.62,0,2.7-.06,5.48.15,8.25Zm16.25-3.92a12.4,12.4,0,0,1,2.32.2l.08,0a.79.79,0,0,1,.34.4.17.17,0,0,1,0,.1c0,.28.06.56.09.84,0-3.05,0-6.11-.07-9.16a39.62,39.62,0,0,1-6.92-.17h0c0,3,0,5.74-.08,8.36l.09-.17a.33.33,0,0,1,.16-.12,6.25,6.25,0,0,1,2-.23C64.54,11.37,65.19,11.33,65.87,11.33ZM36.23,9.23h1l.28,0a1.55,1.55,0,0,1,.74.18h0a.73.73,0,0,1,.3.44V3.24c-1,.11-2.06.16-3.08.19s-1.88.2-2.85.36c-.12,0-.22.13-.22.41.1,1.83.14,3.68.15,5.51a.32.32,0,0,1,.14-.08A13.83,13.83,0,0,1,36.23,9.23Zm33-6.38V3.1A1.93,1.93,0,0,0,70,2.68a.78.78,0,0,0,.13-1,1.22,1.22,0,0,0-.73-.38,36.9,36.9,0,0,0-8.73.05.54.54,0,0,0-.38.23.12.12,0,0,0,0,.1,6,6,0,0,0,2.57.72,45.07,45.07,0,0,0,5.08.17h1a.41.41,0,0,1,.19.08h0a.32.32,0,0,1,.07.19h0ZM54.67,2.73c0,.06,0,.11,0,.17l.79-.07a3.47,3.47,0,0,0,.61-.24.63.63,0,0,0,.3-.63.86.86,0,0,0-.52-.41l-.48-.16A22,22,0,0,0,47,.91a1.26,1.26,0,0,0-.87.41c0,.11.15.26.54.31l.78.08.79.08c1.22.11,2.45.12,3.63.14l1.84,0A.88.88,0,0,1,54.67,2.73Zm-22.74.1c1.09,0,2.27,0,3.49,0,.91-.09,1.81-.15,2.69-.21l1-.07.21,0a1.36,1.36,0,0,0,.32-.08.38.38,0,0,0,0-.47,1.76,1.76,0,0,0-.59-.55L39,1.35l-.19-.08A14.48,14.48,0,0,0,33.36,1a9.5,9.5,0,0,0-2.88.73l-.07,0a.83.83,0,0,0-.28.24.28.28,0,0,0,.09.28,2.79,2.79,0,0,0,1.7.52ZM15.11,2a2.63,2.63,0,0,0,1.07.28q.64.09,1.29.12a1.91,1.91,0,0,1,.47-.12,21.76,21.76,0,0,1,4.12-.5c.52,0,1.07-.05,1.6-.1l.8-.16h0a2.68,2.68,0,0,1,.4,0,1.37,1.37,0,0,0,.56-.06.73.73,0,0,1-.19-.07,5.29,5.29,0,0,0-1.33-.22c-.12,0-.24,0-.36,0A29.45,29.45,0,0,0,17.43,1h-1c-.65.05-1.31.14-1.61.63h0a.08.08,0,0,0,0,0c0,.06.18.17.25.22Z"/></g></g></svg>