<svg xmlns="http://www.w3.org/2000/svg" viewBox="0 0 81.67 74.54"><defs><style>.cls-1{fill:#fd8204;stroke:#fd8204;stroke-linecap:round;stroke-linejoin:round;stroke-width:0.5px;}</style></defs><g id="Layer_2" data-name="Layer 2"><g id="Layer_1-2" data-name="Layer 1"><g id="path859"><path class="cls-1" d="M15.27,74.29,15,73.94h0a85.72,85.72,0,0,0,7.27-7.16A10.76,10.76,0,0,0,25,61.51a3.43,3.43,0,0,0-1.4-3.16A22.88,22.88,0,0,0,19.53,56l-1.1-.56-.73-.36a64.33,64.33,0,0,0-8.9-4,16.19,16.19,0,0,0-7.08-.84l-.34.07a3.17,3.17,0,0,1-.52.4c-.26.15-.42.1-.5,0a.26.26,0,0,1-.1-.28c0-.23.38-.44.9-.58.47-.44,1.19-1.18,2.16-2.19l.53-.54c2.84-2.93,4.87-5,6.23-6.2,1.7-1.57,2.72-2.27,4.21-2.34a12.54,12.54,0,0,1,4.79,1.07,16.64,16.64,0,0,1,4.45,2.57,13.69,13.69,0,0,1,3.26,3.81,5.71,5.71,0,0,1,.77,3.65,1.74,1.74,0,0,0,.11-.18A48.85,48.85,0,0,1,31,44.92c.68-.87,1.38-1.77,2-2.68a36.82,36.82,0,0,0,4-6.87c.65-1.63.58-2.4.27-3a5,5,0,0,0-1.06-1.38l-.09-.09c-2.73-2.72-3.27-3.17-3.37-3.24h0l-1.84-1.16c-.61-.38-1.14-.71-1.43-.86a3.74,3.74,0,0,1-.17.95,2.2,2.2,0,0,1-.73,1,2.44,2.44,0,0,1-1.59.33c-.82,0-2.09-.22-2.63-.3h0a4.58,4.58,0,0,0-.71-.07,1.58,1.58,0,0,0-.1.37c0,.09-.05.19-.07.28a1.7,1.7,0,0,1-.65,1,3.73,3.73,0,0,1-1.58.59,6.34,6.34,0,0,1-1.84.05,6.51,6.51,0,0,1-.84-.17l-.4-.09-.29,0a2,2,0,0,1-.68-.13A3.49,3.49,0,0,1,16,28.53a2,2,0,0,1-.56-1.25A2.13,2.13,0,0,1,15.76,26a2.32,2.32,0,0,1,1-.93l.12,0L16.87,25a5.65,5.65,0,0,1-.41-1.09,3.27,3.27,0,0,1-.05-1.13,4.65,4.65,0,0,1,.23-.91c.14-.43.25-.71.47-.77s.34.09.47.22a2.49,2.49,0,0,0,.23.23,4.16,4.16,0,0,0,1.73.53c1.39.24,3.71.53,4.39.61l1.57.17,1.23.15c.3,0,.61.09.9.15a5.88,5.88,0,0,1,1.08-.05A3.48,3.48,0,0,0,30,22.92a1.37,1.37,0,0,0,.61-.72,2.5,2.5,0,0,0,.25-.91,1.87,1.87,0,0,0-.15-.85,2.62,2.62,0,0,0-.57-.85,2.68,2.68,0,0,0-.9-.6,2.37,2.37,0,0,0-1.14-.24l-.62.05a11.55,11.55,0,0,1-1.4.06,19.93,19.93,0,0,1-3-.42l-1.27-.26L20,17.81c-1.08-.19-1.91-.27-2.22-.3s-.5,0-.6,0a3.07,3.07,0,0,0-.17.31,3,3,0,0,0-.31,1.25,5.8,5.8,0,0,0,.06.88c0,.14,0,.25,0,.33,0,.29-.16.35-.23.36-.27,0-.36-.33-.4-.51a4.33,4.33,0,0,1-.05-1.51,2.79,2.79,0,0,1,.62-1.33l.09-.1a.92.92,0,0,0,.15-.31c0-.06-.15-.17-.24-.24l-.2-.17a1.49,1.49,0,0,1-.47-1,4.39,4.39,0,0,1,.09-1.35A2,2,0,0,1,16.71,13a5.42,5.42,0,0,1,1.77-.95c.85-.34,2.05-.75,2.75-1A1.87,1.87,0,0,1,22,11c.08-.18.18-.37.29-.58A13.51,13.51,0,0,1,24,7.92a22,22,0,0,1,1.76-1.67c.36-.33.74-.66,1.13-1,1.09-1,2.25-2.26,2.92-3L30,2c.49-.56.69-.79,1.25-.88a11.08,11.08,0,0,1,2.27.06l.29,0a3.62,3.62,0,0,0,1.51,0,5.46,5.46,0,0,0,.92-.44A5.11,5.11,0,0,1,37,.35a1.26,1.26,0,0,1,1.41.28A2.28,2.28,0,0,1,39,2a2.24,2.24,0,0,1-.09,1l.28,0a8.66,8.66,0,0,1,2,.26,2.09,2.09,0,0,1,1.28.66,5.54,5.54,0,0,1,1.12,2c.2.52.36,1.14.52,1.73.11.42.22.85.34,1.24.21.66.44,1.24.63,1.71l.21.52a3.5,3.5,0,0,1,.19.72,1.7,1.7,0,0,0,0,.22,2.75,2.75,0,0,0,.57,1.13,9.81,9.81,0,0,0,.79.83c.26.26.53.52.78.8a3.63,3.63,0,0,1,1,2,5.34,5.34,0,0,1-.15,1.67c0,.14-.06.28-.08.4a2.59,2.59,0,0,0,0,1.13l.06.21a2.88,2.88,0,0,1,.11.89,4.92,4.92,0,0,1-.4,1.46l-.09.23a2.64,2.64,0,0,0-.25.91,2.6,2.6,0,0,0,0,.39,4.09,4.09,0,0,1-.12,1.45,8.43,8.43,0,0,1-1.52,2.68A14.73,14.73,0,0,1,45,29.46c-.25.25-.51.51-.76.78s-.52.6-.82,1c-.44.53-.94,1.13-1.66,1.9L40.41,34.5c-1,1-2.16,2.22-3.19,3.43a23,23,0,0,0-3.34,4.79c-.48,1.06-.31,1.49,1.18,3.07,1.09,1.15,2.92,2.94,4.42,4.35-1-1.06-2.11-2.35-2.93-3.35a20.77,20.77,0,0,1-2.3-3.24c-.1-.2-.25-.48,0-.62s.4,0,.52.17.33.33.58.6c.81.91,2.26,2.68,3.57,4.28,1.17,1.44,2.35,2.9,3,3.78a1,1,0,0,0,.42.16c.23,0,.47-.17.87-.45h0a32.26,32.26,0,0,0,3.62-2.87,23.13,23.13,0,0,0,3.55-4.34A24.9,24.9,0,0,0,52.55,40a6,6,0,0,0,.29-1.05c-.22-.27-.52-.62-1.06-1.18s-1-1-1.62-1.61c-.94-.91-1.91-1.87-2.52-2.54a6.44,6.44,0,0,1-.64-.76c-.1-.14-.29-.42-.12-.61s.5,0,1,.4c.69.56,2,1.79,3.86,3.65,1,1,1.33,1.34,1.48,1.77a1.69,1.69,0,0,1,.09.75l.09.11c.12.15.22.29.36.45a11.44,11.44,0,0,0,2.1,1.86l.7.46a7,7,0,0,1,2,1.65,8,8,0,0,1,1,2.46c.14.46.3,1,.5,1.55q.12.31.24.66a2,2,0,0,1,.21-1.23.81.81,0,0,1,.6-.33,3.48,3.48,0,0,1,2.27,1.16,12.1,12.1,0,0,1,1.86,2.69l.29.51a8.57,8.57,0,0,0,1.71,2.3,1.44,1.44,0,0,0,1.61.29c.18-.08.37-.19.58-.3a2.48,2.48,0,0,1,1.72-.49c.78.19,1.48,1.18,2.12,2.27l0-.21a6.22,6.22,0,0,1,.53-3.71,6.38,6.38,0,0,1,2.35-2.82,27.6,27.6,0,0,1,5.08-2.32l.17.44a27.67,27.67,0,0,0-5,2.27,5.79,5.79,0,0,0-2.18,2.63,5.7,5.7,0,0,0-.49,3.45,15,15,0,0,0,.34,1.67,21,21,0,0,1,1.18,2.63,4.88,4.88,0,0,1,.19.72c0,.13.07.44-.16.53s-.46-.24-.64-.64a22,22,0,0,1-1-3.07c-.18-.34-.37-.69-.57-1-.61-1.07-1.32-2.18-2-2.34a2.11,2.11,0,0,0-1.38.44,6.36,6.36,0,0,1-.64.32A1.89,1.89,0,0,1,67,53.44,8.91,8.91,0,0,1,65.18,51l-.3-.52A11.68,11.68,0,0,0,63.1,47.9a3.06,3.06,0,0,0-1.89-1,.37.37,0,0,0-.27.14c-.28.41-.07,1.7.24,3.12.47,1.22.94,2.45,1.23,3.45a12,12,0,0,1,.38,1.78c.06.6,0,.87-.19,1s-.29,0-.44-.28a40.28,40.28,0,0,1-1.23-4.83c-.07-.33-.14-.64-.2-.93l-.14-.36c-.34-.88-.66-1.7-.92-2.45q-.3-.87-.51-1.56a7.63,7.63,0,0,0-1-2.32,7,7,0,0,0-1.88-1.53l-.72-.47a12.48,12.48,0,0,1-2.19-1.95l-.2-.24a5.83,5.83,0,0,1-.22.72,25,25,0,0,1-2.24,4.4,23.3,23.3,0,0,1-3.62,4.43,31.77,31.77,0,0,1-3.67,2.91h0a2.14,2.14,0,0,1-1.13.52h0c.12.21.17.39,0,.52s-.46,0-.69-.21-.59-.48-1-.9c-1.55-1.39-4.34-4.06-5.87-5.68s-1.87-2.25-1.27-3.59l0-.07,0,.07c-.66.91-1.37,1.81-2,2.69a48.63,48.63,0,0,0-3.32,4.62c-.29.49-.57,1-.82,1.47a21.59,21.59,0,0,1-.89,2.52c-.18.42-.36.81-.5,1.1-.25.48-.32.54-.44.57a.24.24,0,0,1-.24-.09c-.09-.11-.08-.24.1-.77.12-.36.3-.83.51-1.32s.56-1.28,1-2.18c0-.13.08-.27.11-.4a6.46,6.46,0,0,0,.16-2.43,5.42,5.42,0,0,0-.7-1.95,13.21,13.21,0,0,0-3.15-3.67,16.13,16.13,0,0,0-4.32-2.51,12,12,0,0,0-4.6-1c-1.22,0-2.1.55-3.91,2.21C9.05,42.59,7,44.62,4.19,47.53l-.53.55c-.68.7-1.23,1.27-1.66,1.7a17.51,17.51,0,0,1,6.94.9,66.7,66.7,0,0,1,9,4l.73.37,1.1.55A22.31,22.31,0,0,1,23.91,58a3.89,3.89,0,0,1,1.57,3.56c-.16,1.57-1.13,3.43-2.89,5.52A84,84,0,0,1,15.27,74.29ZM35.4,44.51c.34.49.83,1.15,1.51,2s1.66,2,2.55,2.93l-.93-1.14C37.42,46.93,36.23,45.47,35.4,44.51Zm-6-19.46a.71.71,0,0,1,.31.1c.29.14.83.48,1.51.91L33,27.22h0c.26.16,1.42,1.27,3.45,3.3l.09.09a5.6,5.6,0,0,1,1.15,1.51c.32.66.5,1.53-.26,3.43a27.92,27.92,0,0,1-1.81,3.56c.38-.49.79-1,1.21-1.49,1-1.22,2.2-2.4,3.21-3.45l1.35-1.4c.71-.76,1.2-1.36,1.64-1.88.3-.36.56-.67.83-1s.53-.55.78-.8a15.45,15.45,0,0,0,1.22-1.31,7.78,7.78,0,0,0,1.43-2.51,3.34,3.34,0,0,0,.1-1.29,3.12,3.12,0,0,1,0-.43,3,3,0,0,1,.29-1.09l.09-.21A4.8,4.8,0,0,0,48.15,21a2.14,2.14,0,0,0-.1-.74A1.74,1.74,0,0,1,48,20a3.1,3.1,0,0,1,0-1.32c0-.13,0-.27.08-.41a4.88,4.88,0,0,0,.15-1.52A3.28,3.28,0,0,0,47.3,15c-.24-.26-.5-.52-.76-.78s-.6-.59-.83-.86A3.18,3.18,0,0,1,45.06,12a1.14,1.14,0,0,1-.05-.24,3.64,3.64,0,0,0-.17-.64c-.05-.14-.12-.31-.2-.51-.2-.47-.43-1.06-.65-1.74-.12-.4-.24-.84-.35-1.26A17,17,0,0,0,43.14,6a5.4,5.4,0,0,0-1-1.79,1.73,1.73,0,0,0-1-.53,8.73,8.73,0,0,0-1.88-.24,1.92,1.92,0,0,0-.56.1,6.69,6.69,0,0,1-.68.82l-.44.5-.21.25c-.1.12-.2.23-.29.35l0,0a3.16,3.16,0,0,0-.26,1.47c0,.17,0,.36.07.53a3.45,3.45,0,0,1,.06,1,2.51,2.51,0,0,1-.76,1.41,5.31,5.31,0,0,1-1.81,1.31,8.8,8.8,0,0,1-2.68.6,2.57,2.57,0,0,1-2-.41,2.11,2.11,0,0,1-.59-1.66,2.3,2.3,0,0,1,.88-1.73,13.68,13.68,0,0,1,2.3-1.48A3.69,3.69,0,0,1,34,5.8h0a4.2,4.2,0,0,1,.61.06,2.27,2.27,0,0,0,1.1,0,2.36,2.36,0,0,0,.88-.71,5.79,5.79,0,0,1,1-1.54,2.4,2.4,0,0,1,.66-.49A1.79,1.79,0,0,0,38.54,2a1.81,1.81,0,0,0-.44-1,.79.79,0,0,0-.91-.17,4.69,4.69,0,0,0-.72.35,5.91,5.91,0,0,1-1,.48,4,4,0,0,1-1.7,0l-.28,0a11.49,11.49,0,0,0-2.15-.06c-.38.06-.48.17-1,.73a2.57,2.57,0,0,0-.21.24c-.67.75-1.85,2-2.95,3l-1.14,1a23,23,0,0,0-1.72,1.63,12.91,12.91,0,0,0-1.62,2.38c-.36.66-.5,1-.42,1.35s.55.87,1.28,1.2a17.57,17.57,0,0,0,2.09.71l1.14.35.25.09a2.6,2.6,0,0,1,1.43,1,2.24,2.24,0,0,1,.39,1.45,4.51,4.51,0,0,1-.12.72c-.1.38-.18.47-.3.5a.25.25,0,0,1-.27-.1c-.06-.09-.06-.21-.05-.65,0-.25,0-.56,0-.84a2,2,0,0,0-.36-1.16h0a3.43,3.43,0,0,0-.85-.43,2.74,2.74,0,0,0-.39-.1l-1.06-.23c-.65-.13-1.33-.27-1.84-.41a2.53,2.53,0,0,1-1.48-.82,2.18,2.18,0,0,1-.4-1.14,2.44,2.44,0,0,1,.05-.59v0l-.41.12c-.59.19-1.83.6-2.72.95a5.33,5.33,0,0,0-1.62.86,1.51,1.51,0,0,0-.44.92,3.81,3.81,0,0,0-.09,1.21,1.07,1.07,0,0,0,.33.67l.17.14a.86.86,0,0,1,.41.56.43.43,0,0,1,0,.16,1.81,1.81,0,0,1,.39,0c.31,0,1.16.11,2.27.3l1.83.37,1.26.26a18.16,18.16,0,0,0,2.92.41,9.16,9.16,0,0,0,1.34-.06l.65,0a2.94,2.94,0,0,1,1.34.28,3.39,3.39,0,0,1,1,.7,3,3,0,0,1,.67,1,2.36,2.36,0,0,1,.19,1.06A3,3,0,0,1,31,22.4a1.83,1.83,0,0,1-.83,1,3.79,3.79,0,0,1-1.47.18h0a2.63,2.63,0,0,1,.65.59c.09.11.29.36.12.55s-.18.15-.41,0a2.57,2.57,0,0,1-.27-.21,4.8,4.8,0,0,0-.59-.45,3.29,3.29,0,0,0-.39-.23,1.35,1.35,0,0,1-.34-.21c-.25-.06-.53-.1-.8-.14l-1.21-.14-1.57-.18c-.68-.08-3-.36-4.43-.61a4.36,4.36,0,0,1-1.92-.62,2.67,2.67,0,0,1-.29-.27l0,0c0,.12-.11.3-.14.38a4.57,4.57,0,0,0-.2.83,2.62,2.62,0,0,0,0,1,5.5,5.5,0,0,0,.37,1c.06.11.1.19.14.25a5.61,5.61,0,0,1,1.34.18,31.66,31.66,0,0,1,3.21.87c.8.27,1,.43,1.16.63s.13.39.07.47a.28.28,0,0,1-.31.11,1.73,1.73,0,0,1-.36-.2l-.3-.18a4.66,4.66,0,0,0-1.23-.5c-.67-.2-1.63-.42-2.25-.53l-.56-.11a4.22,4.22,0,0,1-.76-.17l-.17-.09a1.23,1.23,0,0,0-.29.07,1.79,1.79,0,0,0-.82.74,1.62,1.62,0,0,0-.29,1,1.54,1.54,0,0,0,.44,1,3,3,0,0,0,1,.73,1.56,1.56,0,0,0,.55.1l.33,0c.14,0,.29.06.45.1s.48.12.78.16a6.1,6.1,0,0,0,1.7-.05,3.3,3.3,0,0,0,1.38-.51A1.24,1.24,0,0,0,23,28l.06-.26a1.31,1.31,0,0,1,.2-.56c.19-.24.43-.2,1.13-.1h.05c.53.08,1.78.26,2.57.29a2,2,0,0,0,1.31-.24,1.64,1.64,0,0,0,.55-.79,3.48,3.48,0,0,0,.16-.9h0c0-.15,0-.31.17-.39A.28.28,0,0,1,29.37,25.05Zm18.8,8.41c.61.64,1.47,1.49,2.32,2.32.61.6,1.19,1.17,1.63,1.62l.64.68a7.1,7.1,0,0,0-1.34-1.5C50,35.17,48.9,34.12,48.17,33.46ZM29.33,24.29Zm-12-2.81Zm-1-1.11Zm12.3-2.73ZM34,6.27a3.27,3.27,0,0,0-1.53.58,13.8,13.8,0,0,0-2.22,1.42,1.83,1.83,0,0,0-.72,1.39A1.67,1.67,0,0,0,30,11a2.21,2.21,0,0,0,1.63.29,8.06,8.06,0,0,0,2.52-.56,4.89,4.89,0,0,0,1.66-1.2,2.08,2.08,0,0,0,.64-1.15,3.49,3.49,0,0,0-.06-.83,4.93,4.93,0,0,1-.07-.57,3.18,3.18,0,0,1,0-.87,1.72,1.72,0,0,1-.42.23,2.73,2.73,0,0,1-1.33,0A3.69,3.69,0,0,0,34,6.27Z"/></g></g></g></svg>