<?xml version="1.0" encoding="UTF-8"?><svg id="Layer_2" xmlns="http://www.w3.org/2000/svg" viewBox="0 0 72.74 77.67"><defs><style>.cls-1{fill:none;stroke:#fd8204;stroke-linecap:round;stroke-linejoin:round;stroke-width:.5px;}</style></defs><g id="Layer_1-2"><path class="cls-1" d="M8.2,77.42s-.03,0-.05-.01c-.06-.03-.08-.1-.05-.15,.08-.16,8.09-16.46,12.55-24.21,2.18-3.8,4.89-7.54,7.62-10.55,2.74-3.02,5.1-4.84,6.64-5.13,3.17-.59,8.15-2.17,9.86-3.12,.86-.48,2.57-2.19,4.39-4,1.94-1.94,3.95-3.94,5.4-4.96,1.01-.71,1.85-1.5,2.45-2.29,.6-.8,.91-1.54,.88-2.13-.03-.5-.28-.89-.77-1.16-.85-.48-2.04-.52-3.45-.11-1.23,.36-2.59,1.06-3.83,1.96-.71,.52-1.41,1.28-2.15,2.08-.83,.9-1.7,1.84-2.58,2.42-1.02,.67-1.95,.77-2.83,.31-1.03-.54-1.77-1.29-2.34-2.09-.44-.07-.88-.42-1.29-1.04-.37-.56-.72-1.35-.94-2.11-.08-.29-.14-.54-.16-.74-.02-.19-.03-.39,.1-.44,.15-.07,.29,.13,.42,.35,.24,.4,.46,.88,.69,1.38,.35,.76,.75,1.61,1.3,2.4,.05,0,.1,0,.14,0,1.3-.21,2.27-2.83,3.12-5.15,.32-.86,.61-1.67,.91-2.33,.3-.65,.37-1.16,.21-1.58-.28-.74-1.24-1.18-2.47-1.74-.44-.2-.89-.4-1.36-.64-.35-.18-.69-.17-1.02,.03-.54,1.19-.71,2.55-.85,3.72-.14,1.17-.25,2.1-.71,2.47-.19,.15-.32,.06-.37,.02-.3-.28-.21-1.49-.04-2.44,.11-.64,.45-2.26,1.18-3.3,.2-.29,.4-.49,.6-.62,.24-.52,.56-1,.97-1.42,1.09-1.11,1.61-2.03,1.99-2.7,.44-.77,.73-1.28,1.49-1.49,.32-.09,.66-.21,1.02-.34,1.2-.43,2.56-.91,3.8-.54,1.29,.38,3.11,.3,3.15,.3,.04,0,1.48-.11,2.52-1.11,.42-.4,.59-.83,.49-1.26-.16-.76-1.06-1.39-1.87-1.68-1.3-.46-6.51-1.12-9.66-1.12-2.44,0-3.52,1.07-4.89,2.43-.33,.33-.68,.67-1.06,1.02-1.09,.98-2.9,3.06-4.64,5.06-.19,.22-.38,.44-.57,.65,.06,.09,.09,.2,.11,.32,.06,.58-.43,1.34-.72,1.73-.43,.57-1,1.13-1.44,1.41-.35,.23-.72,.43-1.01,.56-.41,.19-.62,.22-.71,.1-.1-.12,.01-.3,.12-.45,.13-.18,.36-.43,.68-.74,.62-.6,1.6-1.71,2.68-2.94-.05-.04-.11-.08-.19-.1-1.05-.39-3-1.11-4.35-.02-1.4,1.14-3.26,7.88-4.15,11.12-1.16,4.22-2.63,7.98-4.26,10.87-1.08,1.92-6.29,7.65-11.82,13.72-2.23,2.45-4.54,4.99-6.63,7.33-.04,.05-.11,.05-.16,0-.05-.04-.05-.11,0-.16,2.09-2.35,4.4-4.88,6.63-7.33,5.52-6.06,10.73-11.78,11.79-13.68,1.61-2.88,3.08-6.62,4.24-10.82,1.44-5.22,2.94-10.2,4.23-11.24,1.44-1.18,3.48-.42,4.57-.02,.1,.04,.19,.09,.26,.14,.18-.21,.36-.42,.55-.63,1.75-2.01,3.56-4.09,4.66-5.08,.38-.34,.72-.68,1.05-1.01,1.35-1.34,2.52-2.5,5.05-2.5,3.01,0,8.29,.61,9.74,1.13,.88,.31,1.84,1.01,2.02,1.85,.11,.51-.08,1.02-.56,1.48-.44,.42-.93,.69-1.38,.86l5.67-.35L62.98,.3s.07-.05,.11-.04c.04,0,.08,.03,.09,.07l2.56,6.45,6.68,2.14s.07,.05,.08,.09c0,.04,0,.08-.04,.11l-5.48,4.47,.03,6.94s-.02,.08-.06,.1c-.04,.02-.08,.02-.12,0l-5.87-3.7-6.78,2.11s-.08,0-.11-.03c-.03-.03-.04-.07-.03-.11l1.85-6.68-4.11-5.72c-.34,.01-1.95,.04-3.16-.31-1.17-.34-2.49,.13-3.66,.54-.36,.13-.71,.25-1.03,.34-.67,.19-.93,.64-1.35,1.39-.39,.68-.92,1.61-2.03,2.75-.32,.33-.58,.7-.79,1.09,.36-.12,.7-.04,.96,.1,.47,.24,.92,.44,1.35,.64,1.27,.58,2.28,1.03,2.59,1.87,.18,.48,.11,1.06-.22,1.76-.3,.65-.59,1.45-.91,2.31-.44,1.2-.89,2.44-1.42,3.43-.61,1.15-1.23,1.77-1.87,1.87,0,0-.01,0-.02,0,.54,.73,1.23,1.4,2.16,1.89,1.8,.95,3.49-.9,5.14-2.68,.75-.82,1.46-1.59,2.19-2.11,2.18-1.59,5.46-3.03,7.52-1.87,.56,.31,.86,.77,.89,1.35,.07,1.29-1.28,3.11-3.42,4.62-1.43,1.01-3.43,3.01-5.37,4.94-1.83,1.82-3.56,3.55-4.44,4.04-1.73,.96-6.74,2.55-9.93,3.15-1.47,.28-3.85,2.12-6.51,5.06-2.68,2.95-5.45,6.78-7.59,10.51-4.45,7.75-12.46,24.04-12.54,24.2-.02,.04-.06,.06-.1,.06ZM37.76,20.21c0,.19,.08,.59,.27,1.17,.26,.76,.61,1.47,.97,1.94,.25,.32,.49,.53,.73,.64-.49-.74-.85-1.52-1.18-2.23-.23-.49-.45-.96-.68-1.36-.05-.08-.08-.14-.11-.17Zm23.23-3.53s.04,0,.06,.02l5.74,3.61-.03-6.78s.02-.07,.04-.09l5.36-4.37-6.53-2.09s-.06-.03-.07-.07l-2.51-6.31-4.09,5.42s-.05,.04-.08,.05l-6.82,.42,4.06,5.65s.03,.06,.02,.1l-1.81,6.53,6.63-2.06s.02,0,.03,0Zm-21.77-3.73c-.07,.08-.14,.17-.21,.26-1.18,1.69-1.5,5.13-1.17,5.44,0,0,.02,.02,.07-.03,.38-.31,.49-1.24,.62-2.32,.13-1.05,.27-2.25,.69-3.36Zm-7.22-2.52c-1.07,1.23-2.04,2.32-2.66,2.92-.56,.55-.71,.77-.75,.86,.17-.02,.69-.25,1.39-.7,.86-.54,2.15-2.1,2.06-2.92,0-.06-.02-.11-.04-.16Z"/></g></svg>