<?xml version="1.0" encoding="utf-8"?>
<!-- Generator: Adobe Illustrator 25.4.1, SVG Export Plug-In . SVG Version: 6.00 Build 0)  -->
<svg version="1.1" id="Layer_1" xmlns="http://www.w3.org/2000/svg" xmlns:xlink="http://www.w3.org/1999/xlink" x="0px" y="0px"
	 viewBox="0 0 138.8 130.3" style="enable-background:new 0 0 138.8 130.3;" xml:space="preserve">
<style type="text/css">
	.st0{fill:#FD8204;stroke:#FD8204;stroke-width:0.5;}
</style>
<path class="st0" d="M122.9,0.7c-0.4-0.4-1-0.3-1.9-0.2l-0.1,0c-0.3,0-0.5,0.1-0.8,0.2c-1.7,0.6-3.5,1.1-5.2,1.6
	c-3.9,1.2-7.8,2.4-11.6,4C91,11.4,80.1,18.9,70.9,28.7c-5.1,5.4-9.6,11.7-13.8,19.3c-1.2,2.1-2.4,2.7-4.9,2.5
	C44.6,49.8,38,52,32.6,56.9c-7.1,6.4-12.5,14.7-16.4,25.3c-0.3,0.7-0.4,1.3-0.1,1.6c0.3,0.4,0.8,0.4,1.6,0.3
	c7.8-0.8,15.8-0.4,23.7,1.3c0.9,0.2,1.2,0.5,1.3,1.3c0.5,4.4,2.4,7.8,5.7,10.2c2.4,1.8,5.6,3.7,9.7,3.3c1.1-0.1,1.9-0.6,2.4-1.4
	c0.4-0.7,0.4-1.6,0-2.5c-0.6-1.3-1.4-2.5-2.3-3.5c-3.6-3.8-7.9-6.5-12.9-8c-0.8-0.2-1-0.5-0.9-1.2c0.1-0.6,0.1-1.1,0.2-1.7
	c0.1-1.4,0.3-2.8,0.6-4.1c2.2-8.8,6.5-17,10.7-24.6c0.4-0.6,0.7-0.8,1.3-0.6c0.9,0.3,1.9,0.6,2.8,0.9c1.7,0.5,3.5,1,5.2,1.8
	C75.7,59.9,84,67.3,90,77.4c0.4,0.7,0.4,1.1-0.1,1.6c-6.4,6.1-12.3,10.2-18.7,12.7c-0.3,0.1-0.6,0.3-0.8,0.5
	c-0.1,0.1-0.2,0.1-0.3,0.2l-0.4,0.3l0.4,0.3c0.5,0.4,1,0.5,1.3,0.4c1.3-0.5,2.3-0.9,3.2-1.3c5.5-2.6,10.7-6.3,15.9-11.3l0.2-0.2
	c0.2-0.2,0.5-0.5,0.6-0.5c0,0,0.2,0,0.4,0.6c3.3,7.6,3.2,14.3-0.4,20.6c-3.7,6.5-9.1,12.1-17.5,18.2c-0.1,0-0.2,0.1-0.3,0.1
	c0,0,0,0,0,0c0-0.1,0-0.1-0.1-0.2c-0.1-0.3-0.2-0.6-0.3-0.9c-0.2-0.6-0.3-1.3-0.4-2c-0.3-1.2-0.5-2.4-0.9-3.6c-0.9-3.2-2-5.7-4-7.8
	c-1.4-1.5-3-2.1-4.7-1.9c-4.3,0.7-7.5,2.8-9.5,6.3c-1,1.8-1.8,3.7-2.6,5.6c-0.3,0.6-0.5,1.2-0.8,1.8c-0.8,1.8-1.8,3.8-3.8,5.2
	c-1.1,0.7-1.7,1-2.1,0.9c-0.4-0.1-0.9-0.6-1.5-1.6c-1-1.9-2.4-3.1-4.1-3.5c-1.6-0.4-3.2-0.1-4.9,0.9c-1.6,1-3.1,2.2-4.6,3.4
	c-0.6,0.5-1.3,1-1.9,1.5c-0.1,0.1-0.2,0.2-0.3,0.2c0.2-0.5,0.4-0.9,0.6-1.4c0.2-0.5,0.5-1.1,0.7-1.6c0.8-2.3,1.7-4.6,2.2-7.1
	c0.2-1.1,0.1-2-0.4-2.6c-0.5-0.7-1.3-1.1-2.4-1.2c-1.3-0.1-2.6,0-3.9,0.1c-0.5,0-0.9,0.1-1.4,0.1c-0.3,0-0.7,0.1-1.1,0.2
	c0,0-0.1,0-0.1,0c2.7-5.9,6.2-11.8,12.6-15.5l0.8-0.5l-0.9-0.2c-1.7-0.3-4.2,1.7-5.9,3.5c-4.5,4.5-9.2,11.9-8.7,14.9l0.1,0.4
	l0.8-0.3c0.3-0.1,0.6-0.2,0.9-0.4c2.6-1,4.7-1.3,6.9-0.7c0.9,0.2,1.4,0.7,1.3,1.5c-0.1,1.2-0.3,2.5-0.8,3.6
	c-1.2,2.6-2.4,5.1-3.7,7.6c-0.5,1.1-1.1,2.1-1.6,3.2c-0.2,0.4-0.3,0.7-0.5,1.1l-0.3,0.7l0.8,0.6l0.2-0.2c0.1-0.1,0.3-0.2,0.4-0.3
	c0.3-0.3,0.6-0.5,0.9-0.8l0.5-0.6c3-3,6-6.1,9.8-8.2c2.5-1.4,4.7-0.8,6.3,1.6c0.3,0.5,0.7,1.1,0.9,1.7c0.5,1.7,1.7,1.6,2.7,1.3
	c2.6-0.7,4.7-2.4,6.1-5.2c0.6-1.3,1.2-2.6,1.7-3.9c0.2-0.5,0.4-1.1,0.6-1.6c1.8-4.2,4-6.7,7.1-8.1c4-1.7,6.2-1,8,2.7
	c1.1,2.2,1.8,4.6,2.5,6.9c0.2,0.5,0.3,1,0.5,1.6c0.3,1,0.5,2.1,0.7,3.3c0.1,0.5,0.2,1.1,0.3,1.7l0.1,0.5l0.9-0.5
	c0.2-0.1,0.4-0.2,0.5-0.3c7.3-5,12.9-10.3,17.1-16.3c3.5-5,5.1-9.5,5-14.3c-0.1-3.7-0.9-7.3-2.6-11c-0.4-0.9-0.3-1.5,0.3-2.1
	c0.7-0.6,1.3-1.4,1.9-2.1l0.3-0.3c9-10.4,15.7-23,20.5-38.6c3.5-11.3,5.9-22.7,7.1-34.1C123.2,1.6,123.3,1,122.9,0.7z M57.3,50.9
	C63.4,39.7,70.1,30.9,78,24c12.5-10.9,26.8-18.2,43.7-22c-0.1,0.7-0.2,1.3-0.2,1.9c-0.2,1.6-0.3,3-0.6,4.4c-0.2,1.2-0.4,2.3-0.6,3.5
	c-0.8,4.3-1.5,8.7-2.5,13c-5.2,22-13.1,38.2-24.8,51.1c-0.3,0.3-0.5,0.7-0.8,1.1c0,0.1-0.1,0.2-0.1,0.2C83,63.2,71.7,54.5,57.3,50.9
	z M44.4,86.8c0-0.1,0-0.3,0-0.4c0,0,0,0,0-0.1c3.4,0.9,6.1,2.2,8.5,4.1c1.3,1.1,2.6,2.3,3.8,3.5c0.4,0.4,0.8,0.8,1.3,1.2
	c0.2,0.2,0.4,0.5,0.6,0.8l0.1,0.2c0.3,0.6,0.6,1.4,0.3,1.9c-0.2,0.4-0.9,0.7-1.8,0.8c-2.7,0.1-5.9-1.3-8.5-3.8
	C46,92.6,44.4,89.5,44.4,86.8z M42.6,83.1c-0.1,0.2-0.1,0.5-0.1,0.7c-1.2-0.1-2.4-0.3-3.6-0.4c-3-0.4-5.9-0.7-8.8-0.9
	c-1.6-0.1-3.2-0.1-4.9-0.1c-1.3,0-2.5,0-3.8,0c-1.2,0-2.4,0-3.6,0c0.2-0.4,0.4-0.9,0.5-1.3c0.5-1.2,1-2.4,1.5-3.5
	c3.7-8,8.2-14.3,13.7-19.3c5.3-4.8,11.8-6.9,19.7-6.2c0.9,0.1,1.1,0.2,1.2,0.3c0.1,0.1-0.1,0.5-0.4,1.1c-3.4,6.2-6.7,12.2-8.8,18.8
	c-0.8,2.5-1.3,5.1-1.9,7.6C43.1,80.9,42.9,82,42.6,83.1z"/>
</svg>
