<?xml version="1.0" encoding="utf-8"?>
<!-- Generator: Adobe Illustrator 25.4.1, SVG Export Plug-In . SVG Version: 6.00 Build 0)  -->
<svg version="1.1" id="Layer_1" xmlns="http://www.w3.org/2000/svg" xmlns:xlink="http://www.w3.org/1999/xlink" x="0px" y="0px"
	 viewBox="0 0 138.8 130.3" style="enable-background:new 0 0 138.8 130.3;" xml:space="preserve">
<style type="text/css">
	.st0{fill:#FD8204;stroke:#FD8204;stroke-width:0.5;}
</style>
<path class="st0" d="M78.7,35.4c7.3,3.3,13.2,7.9,16.1,15.5c1.9,4.8,2.2,9.9,0.9,14.8c-3.5,13.3-13.6,21-27.1,21
	c-12.4,0-22.3-7.3-25.4-19.8c-2.6-10.2-0.5-22,13.7-29.9c-3.7-1.8-20,3.2-30.8,9.5C16.4,52.1,8.4,59.6,1.4,68.3
	c-0.3-0.2-0.5-0.4-0.8-0.5C1,67,1.3,66.1,1.8,65.4c9.3-11.6,20.8-20.3,34.6-25.8C46,35.8,55.8,34,66.1,34c5.1,0,10.2-0.5,15.3-0.1
	c14.2,1,27,6.5,38.7,14.3c5.7,3.8,10.9,8.4,16.4,12.6c2.3,1.7,2,3.1,0.1,5C122,80.7,104.9,91.4,84.2,95c-25.8,4.4-49.9-0.2-71-16.6
	c-1.5-1.1-2.7-2.6-4.1-3.9c0.2-0.2,0.4-0.5,0.6-0.7c0.5,0.2,1.1,0.4,1.5,0.7C22.6,85,36.3,90.7,51.4,93.4
	c11.8,2.1,23.6,2.1,35.3-0.5c14-3.1,26.5-9.5,37.7-18.3c3.6-2.8,6.8-6,10.2-9c1.7-1.5,1.9-2.7,0-4.4c-13.2-11.8-28-20.5-45.4-24.6
	c-2.9-0.7-6-0.9-9-1.3C79.7,35.2,79.2,35.4,78.7,35.4z M68.7,85.1c14.7,0,26.3-11.3,26.2-25.4C94.7,46.1,83.2,35.6,68,35.9
	c-11.4,0.3-24.2,8.9-24.2,24.4C43.9,74.4,54.7,85.2,68.7,85.1z"/>
</svg>
