<?xml version="1.0" encoding="utf-8"?>
<!-- Generator: Adobe Illustrator 25.4.1, SVG Export Plug-In . SVG Version: 6.00 Build 0)  -->
<svg version="1.1" id="Layer_1" xmlns="http://www.w3.org/2000/svg" xmlns:xlink="http://www.w3.org/1999/xlink" x="0px" y="0px"
	 viewBox="0 0 138.8 130.3" style="enable-background:new 0 0 138.8 130.3;" xml:space="preserve">
<style type="text/css">
	.st0{fill:#FD8204;stroke:#FD8204;stroke-width:0.5;}
</style>
<path class="st0" d="M41.2,105.5c0.6,1.4,1.3,2.8,1.7,4.2c1.7,5.7,1.9,11.5-0.6,17c-0.6,1.2-1.8,2.9-2.9,3c-1.1,0.1-2.6-1.3-3.4-2.4
	c-2.6-3.8-4.8-7.8-7.4-11.6c-4.8-7-11.8-11.1-19-15c-1.5-0.8-3-1.7-4.2-2.8c-1.7-1.5-1.5-3.2,0.5-4c2.4-1,4.9-2.1,7.5-2.2
	c7.1-0.4,14.2-0.5,21.3-0.4c6.6,0.1,13.2,0.3,19.5-1.9c3.3-1.2,6.3-3.2,9.4-4.9c2.4-1.3,4.5-3.1,6.9-4.2c4.3-2,7.8-1.1,10.1,3.1
	c2.3,4.2,3.9,8.9,5.7,13.4c3.7,9,7.4,17.9,11.2,26.9c0.5,1.1,1.3,2.1,2.1,3c1.6,1.8,3.3,1.5,3.5-0.8c0.5-4.7,1.2-9.6,0.8-14.2
	c-1.3-13.6-3.2-27.2-4.9-40.8c-1.5-11.4,0.4-21.4,9-29.9c7-7,13.2-14.8,19.6-22.4c1.8-2.2,3.2-4.8,4.4-7.5c1-2.3,1.4-5-0.5-7.2
	c-1.9-2.2-4.6-2.5-6.9-1.2c-5,2.7-10.1,5.4-14.5,8.8c-6.4,5-12.4,10.6-18.4,16.1c-4.3,4-9.5,6.4-15.2,6.6
	c-9.6,0.3-19.3,0.1-28.9-0.4C38,33.2,28.4,32,18.8,31.3c-3.3-0.2-6.7,0.4-10.1,0.8c-0.9,0.1-2.1,0.9-2.3,1.6
	c-0.2,0.7,0.6,2.1,1.3,2.4c5.9,3.2,11.8,6.5,17.9,9.3c7,3.2,14.3,6.1,21.5,9c0.3,0.1,0.5,0.2,0.8,0.3c7.5,3.9,8.4,7.7,3.4,14.4
	c-2,2.6-4.2,5-6.3,7.5c-0.2,0.3-0.6,0.4-1.5,0.2c0.4-0.8,0.7-1.6,1.2-2.3c2-2.5,4.1-4.9,6-7.4c3.5-4.8,3-7.4-2.2-10.1
	c-5.1-2.6-10.4-4.7-15.6-7c-7.5-3.4-15.1-6.6-22.5-10.2c-1.9-0.9-3.6-2.4-5-4c-1.8-2-1.2-4,1.3-4.8c2-0.7,4.2-1.3,6.3-1.2
	c9.1,0.3,18.1,0.9,27.2,1.5c10.2,0.6,20.4,1.5,30.6,1.8c8.4,0.2,15.7-2.5,22.2-8.6c7.6-7.1,15.7-13.6,24-19.9
	c2.9-2.2,6.9-3.5,10.6-4c4.9-0.7,8.1,3.9,6.9,8.7c-1.4,5.2-4.4,9.5-7.8,13.5c-5.9,6.9-11.9,13.8-18.2,20.3c-6.6,6.9-9,14.9-7.9,24.2
	c1.6,13,3.4,26,4.7,39.1c0.6,5.6,0.4,11.2,0.3,16.9c-0.1,2.5-0.4,5.6-3.4,6.2c-2.6,0.5-4.3-1.8-5.3-3.9c-3.6-7.9-7-15.9-10.4-23.9
	c-2.1-5-3.6-10.2-5.8-15.2c-2.6-6-6.1-6.9-11.7-3.6c-1.4,0.9-2.8,1.8-4.1,2.9c-5.7,4.7-12.3,6.8-19.5,7C36,93,26.8,92.7,17.7,92.9
	c-3.2,0.1-6.4,1-9.6,2c-2.2,0.7-2.3,1.6-0.3,2.9c1.5,1,3.2,2,4.9,2.8c9.6,4.7,16.8,11.8,21.9,21.1c0.8,1.5,1.6,3,2.6,4.3
	c0.6,0.7,1.5,1.6,2.3,1.7c0.5,0.1,1.3-1.2,1.6-2c1.9-4.7,1.9-9.5,0.6-14.3c-0.5-1.8-1.1-3.6-1.6-5.5
	C40.5,105.8,40.9,105.7,41.2,105.5z"/>
</svg>
