<svg width="82" height="77" xmlns="http://www.w3.org/2000/svg">
    <path d="M30.094 74.765c1.956-.006 3.023-.611 3.41-1.938.596-2.037-1.369-5.21-3.454-5.294-1.46-.059-2.946.23-4.394.5-.322.061-.797.72-.762 1.058.3 2.931 1.222 5.734 5.2 5.674m42.212-43.58c.615 1.621 1.027 3.316 1.866 4.76.933 1.603 2.347 1.606 3.712.342 2.438-2.26 2.727-7.956.53-10.467-1.453-1.662-3.318-1.62-4.372.346-.792 1.48-1.13 3.206-1.736 5.018m-1.073 27.607V2.903c-1.124.7-1.79 1.085-2.426 1.517-9.387 6.374-19.052 12.291-29.823 15.99-4.64 1.593-9.541 2.477-14.371 3.442-3.467.693-6.96 1.212-9.999 3.159-3.669 2.35-4.403 5.775-3.316 9.785.845 3.114 3.686 4.263 7.006 3.159.9-.3 1.79-.636 2.683-.955l.291.584-7.503 5.105-.383-.404c.68-.777 1.363-1.554 2.245-2.56-.613-.246-1.068-.48-1.55-.612-2.127-.58-3.37-2.019-3.866-4.1-1.408-5.917.895-10.366 6.64-12.315 2.788-.947 5.718-1.655 8.638-1.995 10.293-1.197 19.493-5.378 28.36-10.364 5.488-3.087 10.699-6.672 16.039-10.025.547-.344 1.124-.639 2.323-1.314v24.155c.64.053.803.118.87.064 3.31-2.66 6.313-1.75 7.48 2.478.741 2.684.558 5.445-.832 7.965-1.59 2.884-3.55 3.191-7.052.95l-.463 23.956c-6.072-3.885-11.603-7.675-17.377-11.047-5.71-3.335-11.616-6.382-18.495-7.213.503 1.62 1.458 3.038 1.182 4.149-.594 2.395-.725 4.46.607 6.68.33.552-.382 2.038-.995 2.778-.727.879-.53 1.717-.701 2.644-.512 2.782-.903 5.68-2.83 8.012-.314.378-.402 1.118-.296 1.628.134.642.62 1.2.878 1.826 1.25 3.033.184 5.09-3 5.827-2.96.687-5.978-1.083-6.835-4.01-1.046-3.576-1.046-3.576-4.778-3.895-4.92-.42-6.816-2.399-7.065-7.317-.192-3.784-.44-7.563-.626-11.347-.062-1.277-.656-1.766-1.897-1.618-2.14.256-4.286.455-6.424.72-1.113.137-1.584.842-1.517 1.953.277 4.585.448 9.18.855 13.752.243 2.72.864 3.036 3.668 2.86.99-.062 1.986-.01 2.996.33-1.926.82-4 .975-5.904.469-.752-.2-1.498-1.81-1.601-2.841-.487-4.874-.817-9.766-1.061-14.658-.1-2.004.746-2.842 2.924-3.153 2.203-.315 4.432-.45 6.65-.65 1.157-.104 1.937.399 2.168 1.558.204 1.03.383 2.074.451 3.12.243 3.72.49 7.44.62 11.165.073 2.146 1.25 3.35 3.079 3.948 2.796.911 5.65 1.182 8.595.562 2.227-.467 4.518-.634 6.775-.97 1.457-.218 1.973-1.063 1.655-2.53-.106-.493-.1-1.312.196-1.545 1.521-1.2 1.52-2.635 1.161-4.347-.119-.565.42-1.393.862-1.932 1.239-1.507 1.188-2.53.04-4.073-.468-.627-.794-1.805-.528-2.466 1.575-3.921 0-6.67-4.24-7.089-.648-.064-1.296-.124-2.239-.213.793-1.67 2.01-1.248 2.978-1.154 6.402.623 12.573 2.228 18.165 5.427 6.377 3.648 12.557 7.644 18.82 11.493.516.317 1.012.67 2.093 1.39" fill="#FD8204" stroke="#FD8204" stroke-width=".5" fill-rule="evenodd"/>
</svg>
