<svg width="62" height="36" xmlns="http://www.w3.org/2000/svg">
    <path d="M33.062 31.62c-.124-1.418-1.317-4.285-2.297-5.025-.214-.163-.77-.16-.979.008-1.663 1.336-2.33 4.967-1.311 6.833.947 1.733 2.867 1.82 3.864.128.345-.586.488-1.292.723-1.943M44.96 2.507c-4.463.018-8.17 3.681-8.212 8.114-.037 3.963 4.067 8.095 7.982 8.037 3.893-.058 8.088-4.315 8.088-8.209 0-4.307-3.613-7.958-7.858-7.942m-28.041-.69c-4.626.014-8.346 3.357-8.373 7.524-.024 3.698 4.583 8.515 8.196 8.569 3.836.058 7.967-4.086 8.004-8.03.043-4.407-3.519-8.077-7.827-8.063M1.128 34.19c-.043-.515-.166-1.038-.116-1.544.652-6.604 4.26-10.89 10.334-13.21 1.036-.396 2.095-.725 3.479-1.2C11.18 16.32 8.3 14.13 7.783 10.074c-.275-2.154.48-4.085 1.879-5.733C13.034.366 18.919-.132 22.579 3.223c1.625 1.488 2.557 3.354 2.886 5.502.336 2.198-.132 4.33-1.622 5.928-1.397 1.496-3.172 2.636-4.846 3.986 1.09.37 2.267.748 3.428 1.168 2.626.95 5 2.332 7.046 4.252.497.465.91.717 1.57.172 3.05-2.52 6.686-3.774 10.432-4.773.237-.063.471-.136 1.11-.322-3.914-1.852-6.618-4.264-6.516-8.682.056-2.418.967-4.454 2.65-6.138 3.33-3.333 8.83-3.44 12.105-.197 2.365 2.341 3.258 5.201 2.432 8.46-.809 3.197-3.27 4.948-6.101 6.442 7.835 2.39 12.746 7.171 13.847 15.291l-.477.306c-.123-.4-.284-.795-.365-1.205-1.114-5.614-4.17-9.744-9.393-12.079-1.782-.797-3.712-1.487-5.63-1.682-1.49-.152-3.085.47-4.6.875-3.021.805-5.89 1.98-8.461 3.817-.881.63-1.219 1.152-.378 2.203 1.343 1.676 2.178 3.614 1.858 5.875-.232 1.638-1.365 2.882-2.813 3.054-1.485.176-2.55-.608-3.201-2.352-.915-2.455-.155-4.64 1.304-6.557.813-1.068.58-1.612-.305-2.359-2.85-2.403-6.121-3.93-9.717-4.733-8.26-1.843-17.097 5.668-16.999 13.212.006.497-.094.996-.145 1.494l-.55.01" fill="#FD8204" stroke="#FD8204" stroke-width=".5" fill-rule="evenodd"/>
</svg>
