<svg width="52" height="62" xmlns="http://www.w3.org/2000/svg">
    <path d="M13.388 39.318c-.024.104-.038.21-.05.302-.569-.064-1.13-.133-1.686-.201-1.4-.173-2.721-.336-4.075-.41a40.748 40.748 0 0 0-2.27-.056c-.585 0-1.178.008-1.786.015-.544.007-1.097.014-1.66.016l.25-.613c.23-.569.448-1.106.69-1.632 1.71-3.715 3.787-6.646 6.355-8.964 2.48-2.24 5.477-3.18 9.159-2.872.41.034.518.084.537.119.027.052-.042.227-.206.522-1.587 2.859-3.093 5.676-4.069 8.716-.368 1.15-.618 2.353-.86 3.518a79.598 79.598 0 0 1-.33 1.54m.801 1.722c0-.059.01-.118.023-.203l.005-.028c1.557.408 2.855 1.036 3.961 1.917.621.495 1.202 1.067 1.765 1.62.193.19.386.379.58.566.103.098.182.242.26.381l.04.074c.15.267.3.64.154.901-.116.208-.41.329-.854.348-1.257.06-2.741-.604-3.97-1.764-1.216-1.149-1.95-2.574-1.964-3.812m6.008-16.63c2.816-5.2 5.96-9.281 9.606-12.472C35.6 6.865 42.233 3.522 50.075 1.722c-.037.308-.07.604-.102.89-.081.72-.157 1.4-.276 2.057-.098.536-.193 1.072-.288 1.608-.35 1.978-.712 4.024-1.183 6.007-2.414 10.181-6.078 17.71-11.53 23.691-.136.15-.236.326-.352.529l-.063.11C32.155 30.07 26.89 26.075 20.196 24.41M50.663 1.124c-.17-.163-.453-.137-.867-.08l-.05.006c-.12.016-.244.033-.366.072-.802.263-1.61.51-2.417.759-1.79.55-3.641 1.117-5.397 1.842a43.016 43.016 0 0 0-15.027 10.374c-2.361 2.511-4.458 5.441-6.412 8.956-.54.974-1.093 1.253-2.28 1.15-3.524-.308-6.596.697-9.128 2.984-3.3 2.982-5.785 6.815-7.597 11.718-.125.338-.176.581-.046.748.131.169.383.18.746.143a35.87 35.87 0 0 1 10.985.586c.424.088.566.233.609.618.223 2.022 1.112 3.62 2.641 4.748 1.105.818 2.614 1.729 4.498 1.518.509-.056.899-.282 1.1-.635.189-.335.185-.752-.01-1.175a6.206 6.206 0 0 0-1.075-1.616 13.314 13.314 0 0 0-5.993-3.72c-.36-.107-.467-.253-.424-.575.035-.265.064-.532.094-.799.07-.636.141-1.295.3-1.914 1.045-4.095 3.036-7.868 4.986-11.38.165-.298.325-.37.615-.273.434.145.875.275 1.316.405.809.238 1.645.485 2.418.826 4.86 2.152 8.728 5.6 11.498 10.246.198.331.186.501-.05.729-2.957 2.835-5.715 4.705-8.681 5.883-.14.055-.26.138-.378.217-.05.035-.101.07-.153.101l-.191.117.175.14c.235.188.443.248.619.182.596-.23 1.049-.42 1.467-.622 2.552-1.225 4.966-2.936 7.38-5.23l.085-.083c.089-.088.22-.219.283-.21.008.001.083.022.19.268 1.53 3.51 1.469 6.628-.19 9.53-1.724 3.014-4.227 5.617-8.117 8.44-.031.023-.085.04-.16.062l-.02.006-.032-.088c-.055-.153-.107-.296-.141-.439a38.569 38.569 0 0 1-.202-.906c-.118-.548-.24-1.115-.402-1.663-.436-1.468-.915-2.644-1.842-3.607-.668-.694-1.41-.985-2.204-.86-2.01.311-3.502 1.288-4.433 2.902-.476.828-.857 1.722-1.226 2.588-.116.275-.234.55-.353.823-.365.829-.86 1.762-1.762 2.389-.492.342-.78.461-.995.412-.209-.049-.405-.27-.68-.764-.478-.861-1.13-1.421-1.885-1.62-.72-.188-1.508-.038-2.281.436-.752.461-1.45 1.025-2.127 1.571-.291.235-.583.47-.878.698a5.181 5.181 0 0 0-.137.109c.084-.22.18-.432.273-.64.108-.243.22-.494.312-.748.38-1.058.772-2.153 1.008-3.272.105-.501.045-.91-.18-1.217-.225-.308-.6-.49-1.113-.543-.6-.062-1.216-.015-1.81.03a25.32 25.32 0 0 1-.636.044c-.159.008-.311.042-.505.085a1.75 1.75 0 0 0-.041.009c1.257-2.723 2.86-5.449 5.847-7.201l.37-.217-.423-.075c-.788-.137-1.929.8-2.748 1.613-2.11 2.093-4.288 5.495-4.044 6.916l.033.19.354-.138.428-.168c1.191-.48 2.205-.588 3.188-.339.438.111.632.343.594.708-.06.577-.122 1.173-.352 1.675a116.72 116.72 0 0 1-1.71 3.524c-.247.497-.494.993-.739 1.491-.08.162-.151.33-.223.497l-.15.343.378.266.093-.08c.063-.054.128-.107.192-.16.142-.115.288-.235.421-.37l.255-.256c1.371-1.383 2.79-2.813 4.535-3.782 1.169-.649 2.173-.392 2.903.742.143.222.321.498.404.775.229.772.8.728 1.271.605 1.221-.322 2.17-1.132 2.821-2.408.3-.587.549-1.208.79-1.809.1-.246.199-.493.301-.739.825-1.966 1.845-3.127 3.31-3.761 1.853-.804 2.897-.459 3.723 1.23.494 1.013.831 2.13 1.156 3.213l.22.72c.147.478.238.979.334 1.51.047.253.094.515.15.785l.044.216.436-.25c.105-.06.165-.095.223-.134 3.384-2.3 5.975-4.771 7.92-7.553 1.618-2.312 2.35-4.42 2.307-6.633-.034-1.707-.434-3.369-1.224-5.083-.198-.43-.155-.698.159-.987.326-.3.62-.641.903-.97l.135-.159c4.166-4.809 7.285-10.656 9.536-17.876A81.866 81.866 0 0 0 50.77 1.99c.045-.43.06-.704-.107-.866" fill="#FD8204" stroke="#FD8204" stroke-width=".5" fill-rule="evenodd"/>
</svg>
