<svg width="62" height="62" xmlns="http://www.w3.org/2000/svg">
    <path d="M46.133 28.44c-.444-1.347-1.319-2.128-2.548-2.312-.446-.067-1.193.37-1.412.783-.163.31.167 1.23.508 1.391 1.062.502 2.233.664 3.452.138M36.44 45.946c.051.28.086.725.222 1.138.114.347.287.849.541.925.266.08.776-.178.976-.443.74-.974 1.44-1.988 2.052-3.047.146-.254.012-.959-.204-1.08-.945-.531-3.556 1.229-3.587 2.507M30.26 10.94c1.394.015 3.001-1.234 3.306-2.733.105-.517-.013-1.343-.354-1.605-.295-.227-1.238-.04-1.566.29-.855.863-1.606 1.856-2.253 2.888-.55.878.051 1.162.866 1.16m8.54 24.124c-.06-.7-.023-1.09-.136-1.43-.657-1.986-2.045-3.364-3.798-4.408-.252-.15-.584-.209-.884-.226-.758-.045-1.178.359-.806 1.051 1.206 2.24 3.154 3.667 5.624 5.013M23.558 20.658l-.064.515c1.554.405 3.091.906 4.668 1.194 2.579.472 5.203.65 7.702-.322.709-.275 1.6-1.057 1.693-1.71.14-.974-.88-1.392-1.816-1.534-4.267-.646-8.286.239-12.183 1.857m32.664 13.601c-.144-.552-.3-.97-.358-1.4-.453-3.321-2.641-4.825-5.925-4.054-.215.05-.433.142-.647.135-1.361-.042-1.864.605-2.278 1.938-.987 3.184-3.06 5.317-6.664 5.476-.31.014-.79.314-.878.583-.662 2.034-1.246 4.093-1.86 6.167.665-.153 1.373-.389 2.097-.466 1.077-.113 1.642.474 1.389 1.518-.464 1.912-1.592 3.43-3.15 4.602-.812.61-1.438.17-1.783-.622-.28-.64-.42-1.342-.739-2.404-.717.88-1.354 1.545-1.85 2.303-.506.77-.804 1.677-1.312 2.445-1.758 2.663-4.675 2.746-6.117-.07-1.062-2.074-1.498-4.48-2.114-6.765-.32-1.188-.345-2.454-.649-3.649-.593-2.338-1.937-4.024-4.382-4.673-2.278-.605-4.278-1.525-4.573-4.279-.255-2.371.36-4.494 1.916-6.275.836-.956 1.86-1.748 2.812-2.6.313-.28.664-.517 1.131-.877-.613-.276-1.039-.475-1.472-.66-1.624-.697-1.744-1.5-.45-2.739.828-.793 1.67-1.586 2.388-2.473.824-1.018.675-1.417-.55-1.762-1.098-.31-1.923-.874-1.725-2.112.193-1.206 1.21-1.685 2.27-1.601 1.167.092 2.301.537 3.461.77.992.199 2 .316 3 .469l.21-.478c-.265-.365-.522-.738-.799-1.094-2.136-2.746-1.587-5.525 1.494-7.17 3.141-1.679 6.577-1.843 9.8-.745 10.811 3.684 18.368 11 21.634 21.93 3.405 11.392.635 21.636-8.012 29.943-4.862 4.67-10.97 6.813-17.648 7.301-7.157.523-13.933-.695-19.97-4.798-6.591-4.48-10.751-10.658-12.314-18.47C-1.267 23.247 6.273 8.789 20.297 2.57c.458-.203.96-.307 1.441-.456l.192.368c-.3.2-.577.448-.901.593-7.326 3.277-12.96 8.33-16.388 15.67-7.352 15.742-.207 33.01 14.33 39.18 4.857 2.062 9.955 2.7 15.193 2.186 7.145-.702 13.528-3.209 18.41-8.613 6.314-6.991 8.823-15.322 7.018-24.557-2.324-11.89-9.855-19.672-20.817-24.218-3.248-1.347-6.764-1.341-10.06.28-2.87 1.411-3.412 3.781-1.493 6.148.605.747 1.057.956 1.675-.046a16.75 16.75 0 0 1 2.108-2.71c.746-.785 1.746-1.189 2.743-.482 1.04.737.96 1.771.482 2.853-1 2.262-2.653 3.167-5.094 2.754-.342-.058-.773-.175-1.033-.031-1.75.973-3.329.124-4.981-.316-.951-.253-1.977-.319-2.964-.287-.324.01-.803.557-.882.928-.055.259.452.637.711.958.026.032.075.046.115.065 2.294 1.079 2.45 1.863.692 3.776-.657.714-1.395 1.353-2.093 2.03-.537.52-.395.996.227 1.227 1.312.486 2.537.934 4.055.222 3.605-1.693 7.459-2.466 11.462-2.23.866.051 1.77.222 2.564.557 1.669.703 1.893 2.681.394 3.695-.776.525-1.744.857-2.672 1.049-4.04.836-7.882-.235-11.74-1.273-.71-.19-1.698-.087-2.324.28-2.607 1.528-4.919 3.428-5.422 6.645-.45 2.88.391 4.805 3.293 5.551 3.674.944 5.439 3.26 5.995 7.056.356 2.435.898 4.855 1.546 7.23.4 1.468 1.24 2.945 2.951 3.04 1.74.099 2.433-1.45 3.26-2.727.925-1.43 2.16-2.67 2.993-4.142 1.138-2.017 2.217-4.11 2.966-6.292.785-2.287.54-2.267-1.382-3.708-1.4-1.05-2.734-2.251-3.846-3.594-.475-.575-.307-1.68-.432-2.546.833-.065 1.82-.45 2.47-.138 2.177 1.047 3.823 2.704 4.359 5.178.38 1.755.886 2.197 2.619 1.596 2.17-.753 3.576-2.363 4.257-4.565.275-.888-.02-1.276-1.03-1.278-.949-.002-1.94-.137-2.835-.438-1.132-.38-1.267-1.38-1.002-2.42.259-1.02 1.001-1.412 2-1.334 1.45.113 2.544.918 3.14 2.149.524 1.08 1.19 1.04 2.142.866 1.164-.214 2.364-.416 3.537-.364 2.639.115 4.95 3.27 4.44 5.915-.019.096-.18.164-.464.408" fill="#FD8204" stroke="#FD8204" stroke-width=".5" fill-rule="evenodd"/>
</svg>
